<svg width="274" height="60" viewBox="0 0 274 60" fill="none" xmlns="http://www.w3.org/2000/svg">
<rect width="274" height="60" rx="4" fill="url(#paint0_linear_2_289)"/>
<path d="M43.3026 37L44.5028 33.4134H49.9716L51.179 37H53.9915L48.8636 22.4545H45.6108L40.4901 37H43.3026ZM45.2131 31.2969L47.1804 25.4375H47.294L49.2614 31.2969H45.2131ZM55.9073 37H58.4357V35.2812H58.5849C58.9897 36.0767 59.8349 37.1918 61.7099 37.1918C64.2809 37.1918 66.2056 35.1534 66.2056 31.5597C66.2056 27.9233 64.2241 25.9489 61.7028 25.9489C59.7781 25.9489 58.9755 27.1065 58.5849 27.8949H58.4783V22.4545H55.9073V37ZM58.4286 31.5455C58.4286 29.429 59.3377 28.0582 60.9925 28.0582C62.7042 28.0582 63.5849 29.5142 63.5849 31.5455C63.5849 33.5909 62.69 35.0824 60.9925 35.0824C59.3519 35.0824 58.4286 33.6619 58.4286 31.5455ZM68.3913 37H70.9624V30.5866C70.9624 29.2017 72.0064 28.2216 73.4197 28.2216C73.853 28.2216 74.3928 28.2997 74.6129 28.3707V26.0057C74.3786 25.9631 73.9737 25.9347 73.6896 25.9347C72.4396 25.9347 71.3956 26.6449 70.9979 27.9091H70.8842V26.0909H68.3913V37ZM76.321 37H78.892V26.0909H76.321V37ZM77.6136 24.5426C78.4304 24.5426 79.098 23.9176 79.098 23.1506C79.098 22.3764 78.4304 21.7514 77.6136 21.7514C76.7898 21.7514 76.1222 22.3764 76.1222 23.1506C76.1222 23.9176 76.7898 24.5426 77.6136 24.5426ZM81.5359 37H84.1069V30.5866C84.1069 29.2017 85.1509 28.2216 86.5643 28.2216C86.9975 28.2216 87.5373 28.2997 87.7575 28.3707V26.0057C87.5231 25.9631 87.1183 25.9347 86.8342 25.9347C85.5842 25.9347 84.5401 26.6449 84.1424 27.9091H84.0288V26.0909H81.5359V37ZM101.38 32.4119C101.38 34.0739 100.194 34.8977 99.0572 34.8977C97.8214 34.8977 96.9975 34.0241 96.9975 32.6392V26.0909H94.4265V33.0369C94.4265 35.6577 95.918 37.142 98.0629 37.142C99.6964 37.142 100.847 36.2827 101.344 35.0611H101.458V37H103.951V26.0909H101.38V32.4119ZM106.594 37H109.165V30.3665C109.165 29.0241 110.06 28.1151 111.168 28.1151C112.255 28.1151 113.001 28.8466 113.001 29.9688V37H115.522V30.196C115.522 28.9673 116.254 28.1151 117.496 28.1151C118.533 28.1151 119.357 28.7259 119.357 30.0753V37H121.935V29.6776C121.935 27.2415 120.529 25.9489 118.526 25.9489C116.942 25.9489 115.735 26.7301 115.252 27.9446H115.138C114.719 26.7088 113.661 25.9489 112.191 25.9489C110.728 25.9489 109.634 26.7017 109.18 27.9446H109.052V26.0909H106.594V37ZM127.683 37.2202C129.395 37.2202 130.417 36.4176 130.886 35.5014H130.971V37H133.443V29.6989C133.443 26.8153 131.092 25.9489 129.011 25.9489C126.717 25.9489 124.956 26.9716 124.387 28.9602L126.788 29.3011C127.044 28.5554 127.768 27.9162 129.025 27.9162C130.218 27.9162 130.872 28.527 130.872 29.5994V29.642C130.872 30.3807 130.098 30.4162 128.173 30.6222C126.056 30.8494 124.032 31.4815 124.032 33.9389C124.032 36.0838 125.602 37.2202 127.683 37.2202ZM128.35 35.331C127.278 35.331 126.511 34.8409 126.511 33.8963C126.511 32.9091 127.37 32.4972 128.521 32.3338C129.196 32.2415 130.545 32.071 130.879 31.8011V33.0866C130.879 34.3011 129.899 35.331 128.35 35.331ZM145.748 37.2131C148.489 37.2131 150.236 35.5866 150.421 33.2713H147.963C147.743 34.4432 146.898 35.1179 145.769 35.1179C144.164 35.1179 143.127 33.7756 143.127 31.5455C143.127 29.3438 144.185 28.0227 145.769 28.0227C147.005 28.0227 147.765 28.8182 147.963 29.8693H150.421C150.243 27.5043 148.397 25.9489 145.733 25.9489C142.537 25.9489 140.52 28.2571 140.52 31.5881C140.52 34.8906 142.488 37.2131 145.748 37.2131ZM157.29 37.2131C160.487 37.2131 162.518 34.9616 162.518 31.5881C162.518 28.2074 160.487 25.9489 157.29 25.9489C154.094 25.9489 152.063 28.2074 152.063 31.5881C152.063 34.9616 154.094 37.2131 157.29 37.2131ZM157.305 35.1534C155.536 35.1534 154.67 33.5767 154.67 31.581C154.67 29.5852 155.536 27.9872 157.305 27.9872C159.045 27.9872 159.911 29.5852 159.911 31.581C159.911 33.5767 159.045 35.1534 157.305 35.1534ZM167.271 30.608C167.271 29.0312 168.223 28.1222 169.579 28.1222C170.907 28.1222 171.703 28.9957 171.703 30.4517V37H174.274V30.054C174.281 27.4403 172.789 25.9489 170.538 25.9489C168.904 25.9489 167.782 26.7301 167.285 27.9446H167.157V26.0909H164.7V37H167.271V30.608ZM182.335 26.0909H180.183V23.4773H177.612V26.0909H176.064V28.0795H177.612V34.1449C177.598 36.1974 179.089 37.206 181.021 37.1491C181.752 37.1278 182.257 36.9858 182.534 36.8935L182.1 34.8835C181.958 34.919 181.667 34.983 181.348 34.983C180.701 34.983 180.183 34.7557 180.183 33.7188V28.0795H182.335V26.0909ZM187.624 37.2202C189.336 37.2202 190.359 36.4176 190.827 35.5014H190.913V37H193.384V29.6989C193.384 26.8153 191.033 25.9489 188.952 25.9489C186.658 25.9489 184.897 26.9716 184.329 28.9602L186.729 29.3011C186.985 28.5554 187.71 27.9162 188.967 27.9162C190.16 27.9162 190.813 28.527 190.813 29.5994V29.642C190.813 30.3807 190.039 30.4162 188.114 30.6222C185.998 30.8494 183.974 31.4815 183.974 33.9389C183.974 36.0838 185.543 37.2202 187.624 37.2202ZM188.292 35.331C187.219 35.331 186.452 34.8409 186.452 33.8963C186.452 32.9091 187.312 32.4972 188.462 32.3338C189.137 32.2415 190.487 32.071 190.82 31.8011V33.0866C190.82 34.3011 189.84 35.331 188.292 35.331Z" fill="white"/>
<path d="M215 30H229" stroke="white" stroke-width="2" stroke-linecap="round" stroke-linejoin="round"/>
<path d="M222 23L229 30L222 37" stroke="white" stroke-width="2" stroke-linecap="round" stroke-linejoin="round"/>
<defs>
<linearGradient id="paint0_linear_2_289" x1="231.53" y1="8.1" x2="216.972" y2="84.7291" gradientUnits="userSpaceOnUse">
<stop stop-color="#EB3850"/>
<stop offset="1" stop-color="#CB162E"/>
</linearGradient>
</defs>
</svg>
