<svg width="322" height="284" viewBox="0 0 322 284" fill="none" xmlns="http://www.w3.org/2000/svg">
<rect width="322" height="284" fill="white"/>
<path d="M33.1251 52.0834C33.9305 52.0834 34.5834 51.4304 34.5834 50.625C34.5834 49.8196 33.9305 49.1667 33.1251 49.1667C32.3197 49.1667 31.6667 49.8196 31.6667 50.625C31.6667 51.4304 32.3197 52.0834 33.1251 52.0834Z" stroke="url(#paint0_linear_2_212)" stroke-width="2" stroke-linecap="round" stroke-linejoin="round"/>
<path d="M49.1666 52.0834C49.972 52.0834 50.6249 51.4304 50.6249 50.625C50.6249 49.8196 49.972 49.1667 49.1666 49.1667C48.3612 49.1667 47.7083 49.8196 47.7083 50.625C47.7083 51.4304 48.3612 52.0834 49.1666 52.0834Z" stroke="url(#paint1_linear_2_212)" stroke-width="2" stroke-linecap="round" stroke-linejoin="round"/>
<path d="M21.4583 21.4583H27.2916L31.1999 40.9854C31.3333 41.6568 31.6985 42.2599 32.2318 42.6892C32.765 43.1184 33.4322 43.3464 34.1166 43.3333H48.2916C48.976 43.3464 49.6432 43.1184 50.1764 42.6892C50.7096 42.2599 51.0749 41.6568 51.2082 40.9854L53.5416 28.75H28.7499" stroke="url(#paint2_linear_2_212)" stroke-width="2" stroke-linecap="round" stroke-linejoin="round"/>
<path d="M21.944 97V83.86H23.708V97H21.944ZM27.0642 97V87.388H28.4322V89.62C28.6482 88.804 29.0322 88.18 29.5842 87.748C30.1482 87.316 30.8802 87.1 31.7802 87.1H31.8522C33.0642 87.1 33.9582 87.478 34.5342 88.234C35.1222 88.99 35.4162 90.082 35.4162 91.51V97H33.6882V91.15C33.6882 90.406 33.4782 89.812 33.0582 89.368C32.6382 88.912 32.0622 88.684 31.3302 88.684C30.5742 88.684 29.9622 88.918 29.4942 89.386C29.0262 89.854 28.7922 90.478 28.7922 91.258V97H27.0642ZM40.3075 97L37.0315 87.388H38.8315L41.5855 95.632H41.9635L44.3575 87.388H46.0495L43.2055 97H40.3075ZM51.9684 97.324C51.1284 97.324 50.4024 97.18 49.7904 96.892C49.1784 96.604 48.6804 96.226 48.2964 95.758C47.9124 95.278 47.6244 94.744 47.4324 94.156C47.2524 93.568 47.1624 92.968 47.1624 92.356V92.032C47.1624 91.408 47.2524 90.802 47.4324 90.214C47.6244 89.626 47.9124 89.098 48.2964 88.63C48.6804 88.15 49.1664 87.772 49.7544 87.496C50.3544 87.208 51.0564 87.064 51.8604 87.064C52.9044 87.064 53.7624 87.292 54.4344 87.748C55.1184 88.192 55.6224 88.768 55.9464 89.476C56.2824 90.184 56.4504 90.94 56.4504 91.744V92.518H48.8184C48.8784 93.466 49.1604 94.252 49.6644 94.876C50.1684 95.5 50.9364 95.812 51.9684 95.812C52.7244 95.812 53.3364 95.644 53.8044 95.308C54.2844 94.972 54.5724 94.582 54.6684 94.138H56.2884C56.0844 95.134 55.5984 95.914 54.8304 96.478C54.0624 97.042 53.1084 97.324 51.9684 97.324ZM51.8604 88.576C50.9964 88.576 50.3184 88.822 49.8264 89.314C49.3344 89.794 49.0224 90.43 48.8904 91.222H54.7584C54.6504 90.406 54.3564 89.764 53.8764 89.296C53.3964 88.816 52.7244 88.576 51.8604 88.576ZM61.8019 97.288C60.5419 97.288 59.5639 97.018 58.8679 96.478C58.1839 95.938 57.8299 95.2 57.8059 94.264H59.4259C59.4499 94.636 59.6359 94.99 59.9839 95.326C60.3439 95.65 60.9499 95.812 61.8019 95.812C62.5699 95.812 63.1579 95.662 63.5659 95.362C63.9739 95.05 64.1779 94.672 64.1779 94.228C64.1779 93.832 64.0279 93.526 63.7279 93.31C63.4279 93.082 62.9419 92.932 62.2699 92.86L61.2259 92.752C60.3139 92.656 59.5699 92.386 58.9939 91.942C58.4179 91.486 58.1299 90.85 58.1299 90.034C58.1299 89.11 58.4719 88.39 59.1559 87.874C59.8399 87.358 60.7219 87.1 61.8019 87.1C62.8819 87.1 63.7579 87.34 64.4299 87.82C65.1019 88.3 65.4499 89.014 65.4739 89.962H63.8539C63.8419 89.578 63.6619 89.254 63.3139 88.99C62.9779 88.714 62.4739 88.576 61.8019 88.576C61.1299 88.576 60.6199 88.714 60.2719 88.99C59.9239 89.266 59.7499 89.614 59.7499 90.034C59.7499 90.394 59.8699 90.682 60.1099 90.898C60.3619 91.114 60.7699 91.252 61.3339 91.312L62.3779 91.42C63.4099 91.528 64.2379 91.816 64.8619 92.284C65.4859 92.74 65.7979 93.388 65.7979 94.228C65.7979 94.828 65.6239 95.362 65.2759 95.83C64.9399 96.286 64.4719 96.646 63.8719 96.91C63.2719 97.162 62.5819 97.288 61.8019 97.288ZM71.7943 97.108C71.0743 97.108 70.4503 97.006 69.9223 96.802C69.4063 96.598 69.0043 96.25 68.7163 95.758C68.4403 95.254 68.3023 94.576 68.3023 93.724V88.684H66.6463V87.388H68.3023V84.472H69.9583V87.388H73.2703V88.684H69.9583V93.94C69.9583 94.456 70.0963 94.858 70.3723 95.146C70.6603 95.422 71.0623 95.56 71.5783 95.56H73.2703V97.108H71.7943ZM76.4164 85.84C76.0324 85.84 75.7444 85.738 75.5524 85.534C75.3724 85.33 75.2824 85.072 75.2824 84.76C75.2824 84.448 75.3724 84.19 75.5524 83.986C75.7444 83.782 76.0324 83.68 76.4164 83.68C76.8004 83.68 77.0824 83.782 77.2624 83.986C77.4544 84.19 77.5504 84.448 77.5504 84.76C77.5504 85.072 77.4544 85.33 77.2624 85.534C77.0824 85.738 76.8004 85.84 76.4164 85.84ZM75.9304 97V88.756H74.4544V87.388H77.6584V97H75.9304ZM80.7475 97V87.388H82.1155V89.602C82.3195 88.798 82.6795 88.18 83.1955 87.748C83.7235 87.316 84.4075 87.1 85.2475 87.1H85.3195C86.1355 87.1 86.8015 87.304 87.3175 87.712C87.8335 88.12 88.1995 88.708 88.4155 89.476C88.6435 88.708 89.0155 88.12 89.5315 87.712C90.0595 87.304 90.7315 87.1 91.5475 87.1H91.6195C92.7595 87.1 93.6055 87.49 94.1575 88.27C94.7215 89.038 95.0035 90.118 95.0035 91.51V97H93.2755V91.132C93.2755 90.352 93.0835 89.752 92.6995 89.332C92.3155 88.9 91.7815 88.684 91.0975 88.684C90.3895 88.684 89.8195 88.912 89.3875 89.368C88.9555 89.812 88.7395 90.436 88.7395 91.24V97H87.0115V91.132C87.0115 90.352 86.8195 89.752 86.4355 89.332C86.0515 88.9 85.5175 88.684 84.8335 88.684C84.1255 88.684 83.5555 88.912 83.1235 89.368C82.6915 89.812 82.4755 90.436 82.4755 91.24V97H80.7475ZM102.001 97.324C101.161 97.324 100.435 97.18 99.8234 96.892C99.2114 96.604 98.7134 96.226 98.3294 95.758C97.9454 95.278 97.6574 94.744 97.4654 94.156C97.2854 93.568 97.1954 92.968 97.1954 92.356V92.032C97.1954 91.408 97.2854 90.802 97.4654 90.214C97.6574 89.626 97.9454 89.098 98.3294 88.63C98.7134 88.15 99.1994 87.772 99.7874 87.496C100.387 87.208 101.089 87.064 101.893 87.064C102.937 87.064 103.795 87.292 104.467 87.748C105.151 88.192 105.655 88.768 105.979 89.476C106.315 90.184 106.483 90.94 106.483 91.744V92.518H98.8514C98.9114 93.466 99.1934 94.252 99.6974 94.876C100.201 95.5 100.969 95.812 102.001 95.812C102.757 95.812 103.369 95.644 103.837 95.308C104.317 94.972 104.605 94.582 104.701 94.138H106.321C106.117 95.134 105.631 95.914 104.863 96.478C104.095 97.042 103.141 97.324 102.001 97.324ZM101.893 88.576C101.029 88.576 100.351 88.822 99.8594 89.314C99.3674 89.794 99.0554 90.43 98.9234 91.222H104.791C104.683 90.406 104.389 89.764 103.909 89.296C103.429 88.816 102.757 88.576 101.893 88.576ZM108.685 97V87.388H110.053V89.62C110.269 88.804 110.653 88.18 111.205 87.748C111.769 87.316 112.501 87.1 113.401 87.1H113.473C114.685 87.1 115.579 87.478 116.155 88.234C116.743 88.99 117.037 90.082 117.037 91.51V97H115.309V91.15C115.309 90.406 115.099 89.812 114.679 89.368C114.259 88.912 113.683 88.684 112.951 88.684C112.195 88.684 111.583 88.918 111.115 89.386C110.647 89.854 110.413 90.478 110.413 91.258V97H108.685ZM123.691 97.108C122.971 97.108 122.347 97.006 121.819 96.802C121.303 96.598 120.901 96.25 120.613 95.758C120.337 95.254 120.199 94.576 120.199 93.724V88.684H118.543V87.388H120.199V84.472H121.855V87.388H125.167V88.684H121.855V93.94C121.855 94.456 121.993 94.858 122.269 95.146C122.557 95.422 122.959 95.56 123.475 95.56H125.167V97.108H123.691ZM131.716 97.324C130.876 97.324 130.138 97.18 129.502 96.892C128.866 96.604 128.326 96.226 127.882 95.758C127.45 95.278 127.12 94.744 126.892 94.156C126.676 93.568 126.568 92.968 126.568 92.356V92.032C126.568 91.42 126.682 90.82 126.91 90.232C127.138 89.632 127.474 89.098 127.918 88.63C128.362 88.15 128.902 87.772 129.538 87.496C130.174 87.208 130.9 87.064 131.716 87.064C132.532 87.064 133.258 87.208 133.894 87.496C134.53 87.772 135.07 88.15 135.514 88.63C135.958 89.098 136.294 89.632 136.522 90.232C136.75 90.82 136.864 91.42 136.864 92.032V92.356C136.864 92.968 136.75 93.568 136.522 94.156C136.306 94.744 135.976 95.278 135.532 95.758C135.1 96.226 134.566 96.604 133.93 96.892C133.294 97.18 132.556 97.324 131.716 97.324ZM131.716 95.776C132.436 95.776 133.048 95.62 133.552 95.308C134.068 94.984 134.458 94.552 134.722 94.012C134.998 93.472 135.136 92.866 135.136 92.194C135.136 91.51 134.998 90.898 134.722 90.358C134.446 89.818 134.05 89.392 133.534 89.08C133.03 88.768 132.424 88.612 131.716 88.612C131.02 88.612 130.414 88.768 129.898 89.08C129.382 89.392 128.986 89.818 128.71 90.358C128.434 90.898 128.296 91.51 128.296 92.194C128.296 92.866 128.428 93.472 128.692 94.012C128.968 94.552 129.358 94.984 129.862 95.308C130.378 95.62 130.996 95.776 131.716 95.776ZM142.35 97.288C141.09 97.288 140.112 97.018 139.416 96.478C138.732 95.938 138.378 95.2 138.354 94.264H139.974C139.998 94.636 140.184 94.99 140.532 95.326C140.892 95.65 141.498 95.812 142.35 95.812C143.118 95.812 143.706 95.662 144.114 95.362C144.522 95.05 144.726 94.672 144.726 94.228C144.726 93.832 144.576 93.526 144.276 93.31C143.976 93.082 143.49 92.932 142.818 92.86L141.774 92.752C140.862 92.656 140.118 92.386 139.542 91.942C138.966 91.486 138.678 90.85 138.678 90.034C138.678 89.11 139.02 88.39 139.704 87.874C140.388 87.358 141.27 87.1 142.35 87.1C143.43 87.1 144.306 87.34 144.978 87.82C145.65 88.3 145.998 89.014 146.022 89.962H144.402C144.39 89.578 144.21 89.254 143.862 88.99C143.526 88.714 143.022 88.576 142.35 88.576C141.678 88.576 141.168 88.714 140.82 88.99C140.472 89.266 140.298 89.614 140.298 90.034C140.298 90.394 140.418 90.682 140.658 90.898C140.91 91.114 141.318 91.252 141.882 91.312L142.926 91.42C143.958 91.528 144.786 91.816 145.41 92.284C146.034 92.74 146.346 93.388 146.346 94.228C146.346 94.828 146.172 95.362 145.824 95.83C145.488 96.286 145.02 96.646 144.42 96.91C143.82 97.162 143.13 97.288 142.35 97.288Z" fill="#333333"/>
<path opacity="0.75" d="M21.233 134H27.1989V132.906H22.4659V123.818H21.233V134ZM32.0511 134.159C34.1193 134.159 35.5114 132.588 35.5114 130.222C35.5114 127.835 34.1193 126.264 32.0511 126.264C29.983 126.264 28.5909 127.835 28.5909 130.222C28.5909 132.588 29.983 134.159 32.0511 134.159ZM32.0511 133.105C30.4801 133.105 29.7642 131.753 29.7642 130.222C29.7642 128.69 30.4801 127.318 32.0511 127.318C33.6222 127.318 34.3381 128.69 34.3381 130.222C34.3381 131.753 33.6222 133.105 32.0511 133.105ZM37.3024 134H38.4757V129.168C38.4757 128.134 39.291 127.378 40.4047 127.378C40.7179 127.378 41.041 127.438 41.1206 127.457V126.264C40.9863 126.254 40.6781 126.244 40.5041 126.244C39.5893 126.244 38.7939 126.761 38.5154 127.517H38.4359V126.364H37.3024V134ZM45.4806 134.159C47.0318 134.159 48.1653 133.384 48.5233 132.23L47.3897 131.912C47.0914 132.707 46.4004 133.105 45.4806 133.105C44.1035 133.105 43.1539 132.215 43.0993 130.58H48.6426V130.082C48.6426 127.239 46.9522 126.264 45.3613 126.264C43.2931 126.264 41.921 127.895 41.921 130.241C41.921 132.588 43.2733 134.159 45.4806 134.159ZM43.0993 129.565C43.1788 128.377 44.019 127.318 45.3613 127.318C46.6341 127.318 47.4494 128.273 47.4494 129.565H43.0993ZM50.4274 134H51.6007V129.227C51.6007 128.109 52.416 127.318 53.3308 127.318C54.2207 127.318 54.8422 127.9 54.8422 128.77V134H56.0353V129.028C56.0353 128.044 56.6518 127.318 57.7257 127.318C58.5609 127.318 59.2768 127.761 59.2768 128.889V134H60.4501V128.889C60.4501 127.094 59.4856 126.264 58.1234 126.264C57.0297 126.264 56.2292 126.766 55.8365 127.557H55.7569C55.3791 126.741 54.7129 126.264 53.7086 126.264C52.7143 126.264 51.9785 126.741 51.6603 127.557H51.5609V126.364H50.4274V134ZM66.5328 134H67.7061V126.364H66.5328V134ZM67.1294 125.091C67.5868 125.091 67.9647 124.733 67.9647 124.295C67.9647 123.858 67.5868 123.5 67.1294 123.5C66.6721 123.5 66.2942 123.858 66.2942 124.295C66.2942 124.733 66.6721 125.091 67.1294 125.091ZM69.8551 136.864H71.0284V132.827H71.1278C71.3864 133.244 71.8835 134.159 73.3551 134.159C75.2642 134.159 76.5966 132.628 76.5966 130.202C76.5966 127.795 75.2642 126.264 73.3352 126.264C71.8438 126.264 71.3864 127.179 71.1278 127.577H70.9886V126.364H69.8551V136.864ZM71.0085 130.182C71.0085 128.472 71.7642 127.318 73.196 127.318C74.6875 127.318 75.4233 128.571 75.4233 130.182C75.4233 131.812 74.6676 133.105 73.196 133.105C71.7841 133.105 71.0085 131.912 71.0085 130.182ZM83.7955 128.074C83.4276 126.99 82.6023 126.264 81.0909 126.264C79.4801 126.264 78.2869 127.179 78.2869 128.472C78.2869 129.526 78.9134 130.232 80.3153 130.56L81.5881 130.858C82.3587 131.037 82.7216 131.405 82.7216 131.932C82.7216 132.588 82.0256 133.125 80.9318 133.125C79.9723 133.125 79.3707 132.712 79.1619 131.892L78.0483 132.17C78.3217 133.468 79.3906 134.159 80.9517 134.159C82.7266 134.159 83.9347 133.19 83.9347 131.872C83.9347 130.808 83.2685 130.137 81.9062 129.804L80.7727 129.526C79.8679 129.302 79.4602 128.999 79.4602 128.412C79.4602 127.756 80.1562 127.278 81.0909 127.278C82.1151 127.278 82.5376 127.845 82.7415 128.372L83.7955 128.074ZM90.5133 130.878C90.5133 132.31 89.4196 132.966 88.5446 132.966C87.5701 132.966 86.8741 132.25 86.8741 131.136V126.364H85.7008V131.216C85.7008 133.165 86.7349 134.099 88.1667 134.099C89.3201 134.099 90.0758 133.483 90.4338 132.707H90.5133V134H91.6866V126.364H90.5133V130.878ZM93.8356 134H95.0089V129.227C95.0089 128.109 95.8242 127.318 96.739 127.318C97.6289 127.318 98.2504 127.9 98.2504 128.77V134H99.4435V129.028C99.4435 128.044 100.06 127.318 101.134 127.318C101.969 127.318 102.685 127.761 102.685 128.889V134H103.858V128.889C103.858 127.094 102.894 126.264 101.532 126.264C100.438 126.264 99.6374 126.766 99.2447 127.557H99.1651C98.7873 126.741 98.1211 126.264 97.1168 126.264C96.1225 126.264 95.3867 126.741 95.0685 127.557H94.9691V126.364H93.8356V134ZM112.825 134.159C114.296 134.159 114.793 133.244 115.052 132.827H115.191V134H116.325V123.818H115.151V127.577H115.052C114.793 127.179 114.336 126.264 112.844 126.264C110.915 126.264 109.583 127.795 109.583 130.202C109.583 132.628 110.915 134.159 112.825 134.159ZM112.984 133.105C111.512 133.105 110.756 131.812 110.756 130.182C110.756 128.571 111.492 127.318 112.984 127.318C114.415 127.318 115.171 128.472 115.171 130.182C115.171 131.912 114.396 133.105 112.984 133.105ZM121.739 134.159C123.807 134.159 125.199 132.588 125.199 130.222C125.199 127.835 123.807 126.264 121.739 126.264C119.67 126.264 118.278 127.835 118.278 130.222C118.278 132.588 119.67 134.159 121.739 134.159ZM121.739 133.105C120.168 133.105 119.452 131.753 119.452 130.222C119.452 128.69 120.168 127.318 121.739 127.318C123.31 127.318 124.026 128.69 124.026 130.222C124.026 131.753 123.31 133.105 121.739 133.105ZM128.163 123.818H126.99V134H128.163V123.818ZM133.414 134.159C135.483 134.159 136.875 132.588 136.875 130.222C136.875 127.835 135.483 126.264 133.414 126.264C131.346 126.264 129.954 127.835 129.954 130.222C129.954 132.588 131.346 134.159 133.414 134.159ZM133.414 133.105C131.843 133.105 131.127 131.753 131.127 130.222C131.127 128.69 131.843 127.318 133.414 127.318C134.985 127.318 135.701 128.69 135.701 130.222C135.701 131.753 134.985 133.105 133.414 133.105ZM138.666 134H139.839V129.168C139.839 128.134 140.654 127.378 141.768 127.378C142.081 127.378 142.404 127.438 142.484 127.457V126.264C142.35 126.254 142.041 126.244 141.867 126.244C140.953 126.244 140.157 126.761 139.879 127.517H139.799V126.364H138.666V134ZM153.221 128.074C152.853 126.99 152.028 126.264 150.517 126.264C148.906 126.264 147.713 127.179 147.713 128.472C147.713 129.526 148.339 130.232 149.741 130.56L151.014 130.858C151.784 131.037 152.147 131.405 152.147 131.932C152.147 132.588 151.451 133.125 150.358 133.125C149.398 133.125 148.797 132.712 148.588 131.892L147.474 132.17C147.748 133.468 148.816 134.159 150.377 134.159C152.152 134.159 153.36 133.19 153.36 131.872C153.36 130.808 152.694 130.137 151.332 129.804L150.199 129.526C149.294 129.302 148.886 128.999 148.886 128.412C148.886 127.756 149.582 127.278 150.517 127.278C151.541 127.278 151.963 127.845 152.167 128.372L153.221 128.074ZM155.127 134H156.3V126.364H155.127V134ZM155.723 125.091C156.181 125.091 156.558 124.733 156.558 124.295C156.558 123.858 156.181 123.5 155.723 123.5C155.266 123.5 154.888 123.858 154.888 124.295C154.888 124.733 155.266 125.091 155.723 125.091ZM161.77 126.364H160.139V124.534H158.966V126.364H157.812V127.358H158.966V132.131C158.966 133.463 160.04 134.099 161.034 134.099C161.472 134.099 161.75 134.02 161.909 133.96L161.67 132.906C161.571 132.926 161.412 132.966 161.153 132.966C160.636 132.966 160.139 132.807 160.139 131.812V127.358H161.77V126.364ZM169.719 134.179C171.052 134.179 171.748 133.463 171.987 132.966H172.046V134H173.219V128.969C173.219 126.543 171.37 126.264 170.396 126.264C169.242 126.264 167.93 126.662 167.333 128.054L168.447 128.452C168.705 127.895 169.317 127.298 170.435 127.298C171.514 127.298 172.046 127.87 172.046 128.849V128.889C172.046 129.456 171.469 129.406 170.077 129.585C168.661 129.769 167.114 130.082 167.114 131.832C167.114 133.324 168.268 134.179 169.719 134.179ZM169.898 133.125C168.964 133.125 168.288 132.707 168.288 131.892C168.288 130.997 169.103 130.719 170.018 130.599C170.515 130.54 171.847 130.401 172.046 130.162V131.236C172.046 132.19 171.29 133.125 169.898 133.125ZM175.361 134H176.534V129.227C176.534 128.109 177.35 127.318 178.264 127.318C179.154 127.318 179.776 127.9 179.776 128.77V134H180.969V129.028C180.969 128.044 181.585 127.318 182.659 127.318C183.494 127.318 184.21 127.761 184.21 128.889V134H185.384V128.889C185.384 127.094 184.419 126.264 183.057 126.264C181.963 126.264 181.163 126.766 180.77 127.557H180.691C180.313 126.741 179.646 126.264 178.642 126.264C177.648 126.264 176.912 126.741 176.594 127.557H176.494V126.364H175.361V134ZM190.731 134.159C192.282 134.159 193.415 133.384 193.773 132.23L192.64 131.912C192.341 132.707 191.65 133.105 190.731 133.105C189.354 133.105 188.404 132.215 188.349 130.58H193.893V130.082C193.893 127.239 192.202 126.264 190.611 126.264C188.543 126.264 187.171 127.895 187.171 130.241C187.171 132.588 188.523 134.159 190.731 134.159ZM188.349 129.565C188.429 128.377 189.269 127.318 190.611 127.318C191.884 127.318 192.699 128.273 192.699 129.565H188.349ZM198.998 126.364H197.368V124.534H196.194V126.364H195.041V127.358H196.194V132.131C196.194 133.463 197.268 134.099 198.263 134.099C198.7 134.099 198.979 134.02 199.138 133.96L198.899 132.906C198.8 132.926 198.64 132.966 198.382 132.966C197.865 132.966 197.368 132.807 197.368 131.812V127.358H198.998V126.364ZM202.513 132.608H201.241L201.181 133.165C201.037 134.512 200.753 135.854 200.624 136.486H201.519C201.758 135.81 202.265 134.278 202.434 133.145L202.513 132.608ZM211.727 134.159C213.417 134.159 214.531 133.125 214.73 131.773H213.556C213.338 132.608 212.642 133.105 211.727 133.105C210.335 133.105 209.44 131.952 209.44 130.182C209.44 128.452 210.355 127.318 211.727 127.318C212.761 127.318 213.377 127.955 213.556 128.651H214.73C214.531 127.219 213.318 126.264 211.707 126.264C209.639 126.264 208.267 127.895 208.267 130.222C208.267 132.509 209.579 134.159 211.727 134.159ZM219.547 134.159C221.615 134.159 223.007 132.588 223.007 130.222C223.007 127.835 221.615 126.264 219.547 126.264C217.479 126.264 216.087 127.835 216.087 130.222C216.087 132.588 217.479 134.159 219.547 134.159ZM219.547 133.105C217.976 133.105 217.26 131.753 217.26 130.222C217.26 128.69 217.976 127.318 219.547 127.318C221.118 127.318 221.834 128.69 221.834 130.222C221.834 131.753 221.118 133.105 219.547 133.105ZM225.972 129.406C225.972 128.074 226.797 127.318 227.921 127.318C229.009 127.318 229.671 128.029 229.671 129.227V134H230.844V129.148C230.844 127.199 229.805 126.264 228.259 126.264C227.105 126.264 226.389 126.781 226.031 127.557H225.932V126.364H224.798V134H225.972V129.406ZM238.397 128.074C238.029 126.99 237.204 126.264 235.692 126.264C234.082 126.264 232.888 127.179 232.888 128.472C232.888 129.526 233.515 130.232 234.917 130.56L236.19 130.858C236.96 131.037 237.323 131.405 237.323 131.932C237.323 132.588 236.627 133.125 235.533 133.125C234.574 133.125 233.972 132.712 233.763 131.892L232.65 132.17C232.923 133.468 233.992 134.159 235.553 134.159C237.328 134.159 238.536 133.19 238.536 131.872C238.536 130.808 237.87 130.137 236.508 129.804L235.374 129.526C234.469 129.302 234.062 128.999 234.062 128.412C234.062 127.756 234.758 127.278 235.692 127.278C236.717 127.278 237.139 127.845 237.343 128.372L238.397 128.074ZM243.504 134.159C245.055 134.159 246.189 133.384 246.547 132.23L245.413 131.912C245.115 132.707 244.424 133.105 243.504 133.105C242.127 133.105 241.177 132.215 241.123 130.58H246.666V130.082C246.666 127.239 244.976 126.264 243.385 126.264C241.317 126.264 239.944 127.895 239.944 130.241C239.944 132.588 241.297 134.159 243.504 134.159ZM241.123 129.565C241.202 128.377 242.042 127.318 243.385 127.318C244.657 127.318 245.473 128.273 245.473 129.565H241.123ZM251.553 134.159C253.243 134.159 254.357 133.125 254.556 131.773H253.383C253.164 132.608 252.468 133.105 251.553 133.105C250.161 133.105 249.266 131.952 249.266 130.182C249.266 128.452 250.181 127.318 251.553 127.318C252.587 127.318 253.204 127.955 253.383 128.651H254.556C254.357 127.219 253.144 126.264 251.533 126.264C249.465 126.264 248.093 127.895 248.093 130.222C248.093 132.509 249.405 134.159 251.553 134.159ZM259.592 126.364H257.961V124.534H256.788V126.364H255.635V127.358H256.788V132.131C256.788 133.463 257.862 134.099 258.856 134.099C259.294 134.099 259.572 134.02 259.731 133.96L259.493 132.906C259.393 132.926 259.234 132.966 258.976 132.966C258.459 132.966 257.961 132.807 257.961 131.812V127.358H259.592V126.364ZM264.477 134.159C266.028 134.159 267.161 133.384 267.519 132.23L266.386 131.912C266.088 132.707 265.396 133.105 264.477 133.105C263.1 133.105 262.15 132.215 262.095 130.58H267.639V130.082C267.639 127.239 265.948 126.264 264.357 126.264C262.289 126.264 260.917 127.895 260.917 130.241C260.917 132.588 262.269 134.159 264.477 134.159ZM262.095 129.565C262.175 128.377 263.015 127.318 264.357 127.318C265.63 127.318 266.445 128.273 266.445 129.565H262.095ZM272.744 126.364H271.114V124.534H269.941V126.364H268.787V127.358H269.941V132.131C269.941 133.463 271.014 134.099 272.009 134.099C272.446 134.099 272.725 134.02 272.884 133.96L272.645 132.906C272.546 132.926 272.387 132.966 272.128 132.966C271.611 132.966 271.114 132.807 271.114 131.812V127.358H272.744V126.364ZM279.322 130.878C279.322 132.31 278.228 132.966 277.353 132.966C276.379 132.966 275.683 132.25 275.683 131.136V126.364H274.509V131.216C274.509 133.165 275.544 134.099 276.975 134.099C278.129 134.099 278.884 133.483 279.242 132.707H279.322V134H280.495V126.364H279.322V130.878ZM282.644 134H283.817V129.168C283.817 128.134 284.633 127.378 285.746 127.378C286.06 127.378 286.383 127.438 286.462 127.457V126.264C286.328 126.254 286.02 126.244 285.846 126.244C284.931 126.244 284.136 126.761 283.857 127.517H283.778V126.364H282.644V134ZM23.321 158.179C24.6534 158.179 25.3494 157.463 25.5881 156.966H25.6477V158H26.821V152.969C26.821 150.543 24.9716 150.264 23.9972 150.264C22.8438 150.264 21.5312 150.662 20.9347 152.054L22.0483 152.452C22.3068 151.895 22.9183 151.298 24.0369 151.298C25.1158 151.298 25.6477 151.87 25.6477 152.849V152.889C25.6477 153.456 25.071 153.406 23.679 153.585C22.2621 153.769 20.7159 154.082 20.7159 155.832C20.7159 157.324 21.8693 158.179 23.321 158.179ZM23.5 157.125C22.5653 157.125 21.8892 156.707 21.8892 155.892C21.8892 154.997 22.7045 154.719 23.6193 154.599C24.1165 154.54 25.4489 154.401 25.6477 154.162V155.236C25.6477 156.19 24.892 157.125 23.5 157.125ZM31.8461 158.159C33.3176 158.159 33.8148 157.244 34.0733 156.827H34.2125V158H35.3461V147.818H34.1728V151.577H34.0733C33.8148 151.179 33.3574 150.264 31.8659 150.264C29.937 150.264 28.6046 151.795 28.6046 154.202C28.6046 156.628 29.937 158.159 31.8461 158.159ZM32.0051 157.105C30.5336 157.105 29.7779 155.812 29.7779 154.182C29.7779 152.571 30.5137 151.318 32.0051 151.318C33.437 151.318 34.1926 152.472 34.1926 154.182C34.1926 155.912 33.4171 157.105 32.0051 157.105ZM37.6578 158H38.8311V150.364H37.6578V158ZM38.2544 149.091C38.7118 149.091 39.0897 148.733 39.0897 148.295C39.0897 147.858 38.7118 147.5 38.2544 147.5C37.7971 147.5 37.4192 147.858 37.4192 148.295C37.4192 148.733 37.7971 149.091 38.2544 149.091ZM40.9801 160.864H42.1534V156.827H42.2528C42.5114 157.244 43.0085 158.159 44.4801 158.159C46.3892 158.159 47.7216 156.628 47.7216 154.202C47.7216 151.795 46.3892 150.264 44.4602 150.264C42.9688 150.264 42.5114 151.179 42.2528 151.577H42.1136V150.364H40.9801V160.864ZM42.1335 154.182C42.1335 152.472 42.8892 151.318 44.321 151.318C45.8125 151.318 46.5483 152.571 46.5483 154.182C46.5483 155.812 45.7926 157.105 44.321 157.105C42.9091 157.105 42.1335 155.912 42.1335 154.182ZM49.5114 158H50.6847V150.364H49.5114V158ZM50.108 149.091C50.5653 149.091 50.9432 148.733 50.9432 148.295C50.9432 147.858 50.5653 147.5 50.108 147.5C49.6506 147.5 49.2727 147.858 49.2727 148.295C49.2727 148.733 49.6506 149.091 50.108 149.091ZM58.2427 152.074C57.8748 150.99 57.0495 150.264 55.5382 150.264C53.9274 150.264 52.7342 151.179 52.7342 152.472C52.7342 153.526 53.3606 154.232 54.7626 154.56L56.0353 154.858C56.8059 155.037 57.1689 155.405 57.1689 155.932C57.1689 156.588 56.4728 157.125 55.3791 157.125C54.4196 157.125 53.818 156.712 53.6092 155.892L52.4956 156.17C52.769 157.468 53.8379 158.159 55.399 158.159C57.1738 158.159 58.3819 157.19 58.3819 155.872C58.3819 154.808 57.7157 154.137 56.3535 153.804L55.22 153.526C54.3152 153.302 53.9075 152.999 53.9075 152.412C53.9075 151.756 54.6035 151.278 55.5382 151.278C56.5623 151.278 56.9849 151.845 57.1887 152.372L58.2427 152.074ZM63.2504 158.159C64.9407 158.159 66.0543 157.125 66.2532 155.773H65.0799C64.8612 156.608 64.1651 157.105 63.2504 157.105C61.8583 157.105 60.9634 155.952 60.9634 154.182C60.9634 152.452 61.8782 151.318 63.2504 151.318C64.2844 151.318 64.9009 151.955 65.0799 152.651H66.2532C66.0543 151.219 64.8413 150.264 63.2305 150.264C61.1623 150.264 59.7901 151.895 59.7901 154.222C59.7901 156.509 61.1026 158.159 63.2504 158.159ZM67.9684 158H69.1417V150.364H67.9684V158ZM68.565 149.091C69.0224 149.091 69.4002 148.733 69.4002 148.295C69.4002 147.858 69.0224 147.5 68.565 147.5C68.1076 147.5 67.7298 147.858 67.7298 148.295C67.7298 148.733 68.1076 149.091 68.565 149.091ZM72.464 153.406C72.464 152.074 73.2892 151.318 74.4128 151.318C75.5016 151.318 76.1628 152.029 76.1628 153.227V158H77.3361V153.148C77.3361 151.199 76.2971 150.264 74.7509 150.264C73.5975 150.264 72.8816 150.781 72.5236 151.557H72.4242V150.364H71.2907V158H72.464V153.406ZM82.5625 161.023C84.392 161.023 85.8636 160.188 85.8636 158.219V150.364H84.7301V151.577H84.6108C84.3523 151.179 83.875 150.264 82.3835 150.264C80.4545 150.264 79.1222 151.795 79.1222 154.142C79.1222 156.528 80.5142 157.881 82.3636 157.881C83.8551 157.881 84.3324 157.006 84.5909 156.588H84.6903V158.139C84.6903 159.412 83.7955 159.989 82.5625 159.989C81.1754 159.989 80.6882 159.258 80.375 158.835L79.4403 159.491C79.9176 160.292 80.8572 161.023 82.5625 161.023ZM82.5227 156.827C81.0511 156.827 80.2955 155.713 80.2955 154.122C80.2955 152.571 81.0312 151.318 82.5227 151.318C83.9545 151.318 84.7102 152.472 84.7102 154.122C84.7102 155.812 83.9347 156.827 82.5227 156.827ZM95.1506 158.159C96.7017 158.159 97.8352 157.384 98.1932 156.23L97.0597 155.912C96.7614 156.707 96.0703 157.105 95.1506 157.105C93.7734 157.105 92.8239 156.215 92.7692 154.58H98.3125V154.082C98.3125 151.239 96.6222 150.264 95.0312 150.264C92.9631 150.264 91.5909 151.895 91.5909 154.241C91.5909 156.588 92.9432 158.159 95.1506 158.159ZM92.7692 153.565C92.8487 152.377 93.6889 151.318 95.0312 151.318C96.304 151.318 97.1193 152.273 97.1193 153.565H92.7692ZM101.271 147.818H100.097V158H101.271V147.818ZM103.42 158H104.593V150.364H103.42V158ZM104.016 149.091C104.474 149.091 104.851 148.733 104.851 148.295C104.851 147.858 104.474 147.5 104.016 147.5C103.559 147.5 103.181 147.858 103.181 148.295C103.181 148.733 103.559 149.091 104.016 149.091ZM110.063 150.364H108.432V148.534H107.259V150.364H106.105V151.358H107.259V156.131C107.259 157.463 108.333 158.099 109.327 158.099C109.765 158.099 110.043 158.02 110.202 157.96L109.963 156.906C109.864 156.926 109.705 156.966 109.446 156.966C108.929 156.966 108.432 156.807 108.432 155.812V151.358H110.063V150.364ZM112.683 158.08C113.175 158.08 113.578 157.677 113.578 157.185C113.578 156.692 113.175 156.29 112.683 156.29C112.191 156.29 111.788 156.692 111.788 157.185C111.788 157.677 112.191 158.08 112.683 158.08ZM120.197 158L121.222 155.116H125.338L126.362 158H127.655L123.916 147.818H122.643L118.905 158H120.197ZM121.609 154.023L123.24 149.429H123.32L124.95 154.023H121.609ZM132.283 158.159C133.835 158.159 134.968 157.384 135.326 156.23L134.192 155.912C133.894 156.707 133.203 157.105 132.283 157.105C130.906 157.105 129.957 156.215 129.902 154.58H135.445V154.082C135.445 151.239 133.755 150.264 132.164 150.264C130.096 150.264 128.724 151.895 128.724 154.241C128.724 156.588 130.076 158.159 132.283 158.159ZM129.902 153.565C129.982 152.377 130.822 151.318 132.164 151.318C133.437 151.318 134.252 152.273 134.252 153.565H129.902ZM138.403 153.406C138.403 152.074 139.229 151.318 140.352 151.318C141.441 151.318 142.102 152.029 142.102 153.227V158H143.276V153.148C143.276 151.199 142.237 150.264 140.69 150.264C139.537 150.264 138.821 150.781 138.463 151.557H138.364V150.364H137.23V158H138.403V153.406ZM148.621 158.159C150.172 158.159 151.306 157.384 151.664 156.23L150.53 155.912C150.232 156.707 149.541 157.105 148.621 157.105C147.244 157.105 146.295 156.215 146.24 154.58H151.783V154.082C151.783 151.239 150.093 150.264 148.502 150.264C146.434 150.264 145.062 151.895 145.062 154.241C145.062 156.588 146.414 158.159 148.621 158.159ZM146.24 153.565C146.319 152.377 147.16 151.318 148.502 151.318C149.775 151.318 150.59 152.273 150.59 153.565H146.24ZM155.815 158.179C157.148 158.179 157.844 157.463 158.082 156.966H158.142V158H159.315V152.969C159.315 150.543 157.466 150.264 156.491 150.264C155.338 150.264 154.025 150.662 153.429 152.054L154.542 152.452C154.801 151.895 155.412 151.298 156.531 151.298C157.61 151.298 158.142 151.87 158.142 152.849V152.889C158.142 153.456 157.565 153.406 156.173 153.585C154.756 153.769 153.21 154.082 153.21 155.832C153.21 157.324 154.363 158.179 155.815 158.179ZM155.994 157.125C155.059 157.125 154.383 156.707 154.383 155.892C154.383 154.997 155.199 154.719 156.113 154.599C156.611 154.54 157.943 154.401 158.142 154.162V155.236C158.142 156.19 157.386 157.125 155.994 157.125ZM162.63 153.406C162.63 152.074 163.455 151.318 164.579 151.318C165.668 151.318 166.329 152.029 166.329 153.227V158H167.502V153.148C167.502 151.199 166.463 150.264 164.917 150.264C163.763 150.264 163.048 150.781 162.69 151.557H162.59V150.364H161.457V158H162.63V153.406ZM179.828 150.364H178.555L176.447 156.449H176.368L174.26 150.364H172.987L175.811 158H177.004L179.828 150.364ZM181.377 158H182.55V150.364H181.377V158ZM181.973 149.091C182.431 149.091 182.808 148.733 182.808 148.295C182.808 147.858 182.431 147.5 181.973 147.5C181.516 147.5 181.138 147.858 181.138 148.295C181.138 148.733 181.516 149.091 181.973 149.091ZM188.02 150.364H186.389V148.534H185.216V150.364H184.062V151.358H185.216V156.131C185.216 157.463 186.29 158.099 187.284 158.099C187.722 158.099 188 158.02 188.159 157.96L187.92 156.906C187.821 156.926 187.662 156.966 187.403 156.966C186.886 156.966 186.389 156.807 186.389 155.812V151.358H188.02V150.364ZM192.032 158.179C193.364 158.179 194.06 157.463 194.299 156.966H194.359V158H195.532V152.969C195.532 150.543 193.683 150.264 192.708 150.264C191.555 150.264 190.242 150.662 189.646 152.054L190.759 152.452C191.018 151.895 191.629 151.298 192.748 151.298C193.827 151.298 194.359 151.87 194.359 152.849V152.889C194.359 153.456 193.782 153.406 192.39 153.585C190.973 153.769 189.427 154.082 189.427 155.832C189.427 157.324 190.58 158.179 192.032 158.179ZM192.211 157.125C191.276 157.125 190.6 156.707 190.6 155.892C190.6 154.997 191.415 154.719 192.33 154.599C192.827 154.54 194.16 154.401 194.359 154.162V155.236C194.359 156.19 193.603 157.125 192.211 157.125ZM200.875 158.159C202.426 158.159 203.56 157.384 203.918 156.23L202.784 155.912C202.486 156.707 201.795 157.105 200.875 157.105C199.498 157.105 198.548 156.215 198.494 154.58H204.037V154.082C204.037 151.239 202.347 150.264 200.756 150.264C198.688 150.264 197.316 151.895 197.316 154.241C197.316 156.588 198.668 158.159 200.875 158.159ZM198.494 153.565C198.573 152.377 199.414 151.318 200.756 151.318C202.029 151.318 202.844 152.273 202.844 153.565H198.494ZM210.933 147.818H209.759V158H210.933V147.818ZM216.283 158.159C217.835 158.159 218.968 157.384 219.326 156.23L218.192 155.912C217.894 156.707 217.203 157.105 216.283 157.105C214.906 157.105 213.957 156.215 213.902 154.58H219.445V154.082C219.445 151.239 217.755 150.264 216.164 150.264C214.096 150.264 212.724 151.895 212.724 154.241C212.724 156.588 214.076 158.159 216.283 158.159ZM213.902 153.565C213.982 152.377 214.822 151.318 216.164 151.318C217.437 151.318 218.252 152.273 218.252 153.565H213.902ZM224.332 158.159C226.401 158.159 227.793 156.588 227.793 154.222C227.793 151.835 226.401 150.264 224.332 150.264C222.264 150.264 220.872 151.835 220.872 154.222C220.872 156.588 222.264 158.159 224.332 158.159ZM224.332 157.105C222.761 157.105 222.045 155.753 222.045 154.222C222.045 152.69 222.761 151.318 224.332 151.318C225.903 151.318 226.619 152.69 226.619 154.222C226.619 155.753 225.903 157.105 224.332 157.105ZM234.694 147.818H233.521V158H234.694V147.818ZM239.091 158.179C240.423 158.179 241.119 157.463 241.358 156.966H241.417V158H242.591V152.969C242.591 150.543 240.741 150.264 239.767 150.264C238.613 150.264 237.301 150.662 236.704 152.054L237.818 152.452C238.076 151.895 238.688 151.298 239.806 151.298C240.885 151.298 241.417 151.87 241.417 152.849V152.889C241.417 153.456 240.841 153.406 239.449 153.585C238.032 153.769 236.485 154.082 236.485 155.832C236.485 157.324 237.639 158.179 239.091 158.179ZM239.27 157.125C238.335 157.125 237.659 156.707 237.659 155.892C237.659 154.997 238.474 154.719 239.389 154.599C239.886 154.54 241.218 154.401 241.417 154.162V155.236C241.417 156.19 240.662 157.125 239.27 157.125ZM247.834 158.159C249.525 158.159 250.638 157.125 250.837 155.773H249.664C249.445 156.608 248.749 157.105 247.834 157.105C246.442 157.105 245.547 155.952 245.547 154.182C245.547 152.452 246.462 151.318 247.834 151.318C248.868 151.318 249.485 151.955 249.664 152.651H250.837C250.638 151.219 249.425 150.264 247.814 150.264C245.746 150.264 244.374 151.895 244.374 154.222C244.374 156.509 245.687 158.159 247.834 158.159ZM252.552 158H253.726V150.364H252.552V158ZM253.149 149.091C253.606 149.091 253.984 148.733 253.984 148.295C253.984 147.858 253.606 147.5 253.149 147.5C252.692 147.5 252.314 147.858 252.314 148.295C252.314 148.733 252.692 149.091 253.149 149.091ZM257.048 153.406C257.048 152.074 257.873 151.318 258.997 151.318C260.086 151.318 260.747 152.029 260.747 153.227V158H261.92V153.148C261.92 151.199 260.881 150.264 259.335 150.264C258.181 150.264 257.466 150.781 257.108 151.557H257.008V150.364H255.875V158H257.048V153.406ZM264.064 158H265.237V150.364H264.064V158ZM264.661 149.091C265.118 149.091 265.496 148.733 265.496 148.295C265.496 147.858 265.118 147.5 264.661 147.5C264.203 147.5 263.825 147.858 263.825 148.295C263.825 148.733 264.203 149.091 264.661 149.091ZM269.634 158.179C270.966 158.179 271.662 157.463 271.901 156.966H271.96V158H273.134V152.969C273.134 150.543 271.284 150.264 270.31 150.264C269.156 150.264 267.844 150.662 267.247 152.054L268.361 152.452C268.619 151.895 269.231 151.298 270.349 151.298C271.428 151.298 271.96 151.87 271.96 152.849V152.889C271.96 153.456 271.384 153.406 269.991 153.585C268.575 153.769 267.028 154.082 267.028 155.832C267.028 157.324 268.182 158.179 269.634 158.179ZM269.812 157.125C268.878 157.125 268.202 156.707 268.202 155.892C268.202 154.997 269.017 154.719 269.932 154.599C270.429 154.54 271.761 154.401 271.96 154.162V155.236C271.96 156.19 271.205 157.125 269.812 157.125ZM277.025 156.608H275.752L275.693 157.165C275.548 158.512 275.265 159.854 275.136 160.486H276.031C276.269 159.81 276.776 158.278 276.945 157.145L277.025 156.608ZM24.3949 174.364H22.7642V172.534H21.5909V174.364H20.4375V175.358H21.5909V180.131C21.5909 181.463 22.6648 182.099 23.6591 182.099C24.0966 182.099 24.375 182.02 24.5341 181.96L24.2955 180.906C24.196 180.926 24.0369 180.966 23.7784 180.966C23.2614 180.966 22.7642 180.807 22.7642 179.812V175.358H24.3949V174.364ZM29.2795 182.159C30.8306 182.159 31.9641 181.384 32.3221 180.23L31.1886 179.912C30.8903 180.707 30.1992 181.105 29.2795 181.105C27.9023 181.105 26.9528 180.215 26.8981 178.58H32.4414V178.082C32.4414 175.239 30.7511 174.264 29.1602 174.264C27.092 174.264 25.7198 175.895 25.7198 178.241C25.7198 180.588 27.0721 182.159 29.2795 182.159ZM26.8981 177.565C26.9776 176.377 27.8178 175.318 29.1602 175.318C30.4329 175.318 31.2482 176.273 31.2482 177.565H26.8981ZM34.2262 182H35.3995V177.227C35.3995 176.109 36.2148 175.318 37.1296 175.318C38.0195 175.318 38.641 175.9 38.641 176.77V182H39.8342V177.028C39.8342 176.044 40.4506 175.318 41.5245 175.318C42.3597 175.318 43.0756 175.761 43.0756 176.889V182H44.2489V176.889C44.2489 175.094 43.2844 174.264 41.9222 174.264C40.8285 174.264 40.0281 174.766 39.6353 175.557H39.5558C39.1779 174.741 38.5117 174.264 37.5075 174.264C36.5131 174.264 35.7773 174.741 35.4592 175.557H35.3597V174.364H34.2262V182ZM46.3942 184.864H47.5675V180.827H47.6669C47.9254 181.244 48.4226 182.159 49.8942 182.159C51.8033 182.159 53.1357 180.628 53.1357 178.202C53.1357 175.795 51.8033 174.264 49.8743 174.264C48.3828 174.264 47.9254 175.179 47.6669 175.577H47.5277V174.364H46.3942V184.864ZM47.5476 178.182C47.5476 176.472 48.3033 175.318 49.7351 175.318C51.2266 175.318 51.9624 176.571 51.9624 178.182C51.9624 179.812 51.2067 181.105 49.7351 181.105C48.3232 181.105 47.5476 179.912 47.5476 178.182ZM59.7379 178.878C59.7379 180.31 58.6442 180.966 57.7692 180.966C56.7947 180.966 56.0987 180.25 56.0987 179.136V174.364H54.9254V179.216C54.9254 181.165 55.9595 182.099 57.3913 182.099C58.5447 182.099 59.3004 181.483 59.6584 180.707H59.7379V182H60.9112V174.364H59.7379V178.878ZM68.4693 176.074C68.1014 174.99 67.2761 174.264 65.7647 174.264C64.1539 174.264 62.9608 175.179 62.9608 176.472C62.9608 177.526 63.5872 178.232 64.9892 178.56L66.2619 178.858C67.0325 179.037 67.3954 179.405 67.3954 179.932C67.3954 180.588 66.6994 181.125 65.6056 181.125C64.6461 181.125 64.0446 180.712 63.8358 179.892L62.7221 180.17C62.9956 181.468 64.0645 182.159 65.6255 182.159C67.4004 182.159 68.6085 181.19 68.6085 179.872C68.6085 178.808 67.9423 178.137 66.5801 177.804L65.4466 177.526C64.5417 177.302 64.1341 176.999 64.1341 176.412C64.1341 175.756 64.8301 175.278 65.7647 175.278C66.7889 175.278 67.2115 175.845 67.4153 176.372L68.4693 176.074ZM77.4144 182.159C79.4826 182.159 80.8746 180.588 80.8746 178.222C80.8746 175.835 79.4826 174.264 77.4144 174.264C75.3462 174.264 73.9542 175.835 73.9542 178.222C73.9542 180.588 75.3462 182.159 77.4144 182.159ZM77.4144 181.105C75.8434 181.105 75.1275 179.753 75.1275 178.222C75.1275 176.69 75.8434 175.318 77.4144 175.318C78.9854 175.318 79.7013 176.69 79.7013 178.222C79.7013 179.753 78.9854 181.105 77.4144 181.105ZM85.5492 182.159C87.0208 182.159 87.5179 181.244 87.7765 180.827H87.9157V182H89.0492V171.818H87.8759V175.577H87.7765C87.5179 175.179 87.0605 174.264 85.5691 174.264C83.6401 174.264 82.3077 175.795 82.3077 178.202C82.3077 180.628 83.6401 182.159 85.5492 182.159ZM85.7083 181.105C84.2367 181.105 83.481 179.812 83.481 178.182C83.481 176.571 84.2168 175.318 85.7083 175.318C87.1401 175.318 87.8958 176.472 87.8958 178.182C87.8958 179.912 87.1202 181.105 85.7083 181.105ZM91.361 182H92.5343V174.364H91.361V182ZM91.9576 173.091C92.415 173.091 92.7928 172.733 92.7928 172.295C92.7928 171.858 92.415 171.5 91.9576 171.5C91.5002 171.5 91.1223 171.858 91.1223 172.295C91.1223 172.733 91.5002 173.091 91.9576 173.091ZM97.7855 182.159C99.8537 182.159 101.246 180.588 101.246 178.222C101.246 175.835 99.8537 174.264 97.7855 174.264C95.7173 174.264 94.3253 175.835 94.3253 178.222C94.3253 180.588 95.7173 182.159 97.7855 182.159ZM97.7855 181.105C96.2145 181.105 95.4986 179.753 95.4986 178.222C95.4986 176.69 96.2145 175.318 97.7855 175.318C99.3565 175.318 100.072 176.69 100.072 178.222C100.072 179.753 99.3565 181.105 97.7855 181.105ZM108.148 177.406C108.148 176.074 108.998 175.318 110.156 175.318C111.26 175.318 111.926 176.014 111.926 177.227V182H113.099V177.148C113.099 175.184 112.055 174.264 110.494 174.264C109.291 174.264 108.605 174.766 108.247 175.557H108.148V171.818H106.974V182H108.148V177.406ZM118.447 182.159C119.999 182.159 121.132 181.384 121.49 180.23L120.357 179.912C120.058 180.707 119.367 181.105 118.447 181.105C117.07 181.105 116.121 180.215 116.066 178.58H121.609V178.082C121.609 175.239 119.919 174.264 118.328 174.264C116.26 174.264 114.888 175.895 114.888 178.241C114.888 180.588 116.24 182.159 118.447 182.159ZM116.066 177.565C116.146 176.377 116.986 175.318 118.328 175.318C119.601 175.318 120.416 176.273 120.416 177.565H116.066ZM124.567 177.406C124.567 176.074 125.393 175.318 126.516 175.318C127.605 175.318 128.266 176.029 128.266 177.227V182H129.44V177.148C129.44 175.199 128.401 174.264 126.854 174.264C125.701 174.264 124.985 174.781 124.627 175.557H124.528V174.364H123.394V182H124.567V177.406ZM134.467 182.159C135.939 182.159 136.436 181.244 136.694 180.827H136.834V182H137.967V171.818H136.794V175.577H136.694C136.436 175.179 135.979 174.264 134.487 174.264C132.558 174.264 131.226 175.795 131.226 178.202C131.226 180.628 132.558 182.159 134.467 182.159ZM134.626 181.105C133.155 181.105 132.399 179.812 132.399 178.182C132.399 176.571 133.135 175.318 134.626 175.318C136.058 175.318 136.814 176.472 136.814 178.182C136.814 179.912 136.038 181.105 134.626 181.105ZM140.279 182H141.452V177.168C141.452 176.134 142.268 175.378 143.381 175.378C143.694 175.378 144.018 175.438 144.097 175.457V174.264C143.963 174.254 143.655 174.244 143.481 174.244C142.566 174.244 141.77 174.761 141.492 175.517H141.412V174.364H140.279V182ZM148.457 182.159C150.008 182.159 151.142 181.384 151.5 180.23L150.366 179.912C150.068 180.707 149.377 181.105 148.457 181.105C147.08 181.105 146.131 180.215 146.076 178.58H151.619V178.082C151.619 175.239 149.929 174.264 148.338 174.264C146.27 174.264 144.898 175.895 144.898 178.241C144.898 180.588 146.25 182.159 148.457 182.159ZM146.076 177.565C146.155 176.377 146.996 175.318 148.338 175.318C149.611 175.318 150.426 176.273 150.426 177.565H146.076ZM153.404 182H154.577V177.168C154.577 176.134 155.393 175.378 156.506 175.378C156.819 175.378 157.143 175.438 157.222 175.457V174.264C157.088 174.254 156.78 174.244 156.606 174.244C155.691 174.244 154.895 174.761 154.617 175.517H154.537V174.364H153.404V182ZM158.613 182H159.786V174.364H158.613V182ZM159.21 173.091C159.667 173.091 160.045 172.733 160.045 172.295C160.045 171.858 159.667 171.5 159.21 171.5C158.752 171.5 158.374 171.858 158.374 172.295C158.374 172.733 158.752 173.091 159.21 173.091ZM165.256 174.364H163.626V172.534H162.452V174.364H161.299V175.358H162.452V180.131C162.452 181.463 163.526 182.099 164.52 182.099C164.958 182.099 165.236 182.02 165.395 181.96L165.157 180.906C165.057 180.926 164.898 180.966 164.64 180.966C164.123 180.966 163.626 180.807 163.626 179.812V175.358H165.256V174.364ZM168.771 180.608H167.498L167.439 181.165C167.295 182.512 167.011 183.854 166.882 184.486H167.777C168.015 183.81 168.523 182.278 168.692 181.145L168.771 180.608ZM179.695 178.878C179.695 180.31 178.601 180.966 177.726 180.966C176.752 180.966 176.056 180.25 176.056 179.136V174.364H174.882V179.216C174.882 181.165 175.917 182.099 177.348 182.099C178.502 182.099 179.257 181.483 179.615 180.707H179.695V182H180.868V174.364H179.695V178.878ZM184.191 171.818H183.017V182H184.191V171.818ZM189.661 174.364H188.03V172.534H186.857V174.364H185.703V175.358H186.857V180.131C186.857 181.463 187.93 182.099 188.925 182.099C189.362 182.099 189.641 182.02 189.8 181.96L189.561 180.906C189.462 180.926 189.303 180.966 189.044 180.966C188.527 180.966 188.03 180.807 188.03 179.812V175.358H189.661V174.364ZM191.425 182H192.599V177.168C192.599 176.134 193.414 175.378 194.528 175.378C194.841 175.378 195.164 175.438 195.244 175.457V174.264C195.109 174.254 194.801 174.244 194.627 174.244C193.712 174.244 192.917 174.761 192.638 175.517H192.559V174.364H191.425V182ZM196.634 182H197.808V174.364H196.634V182ZM197.231 173.091C197.688 173.091 198.066 172.733 198.066 172.295C198.066 171.858 197.688 171.5 197.231 171.5C196.774 171.5 196.396 171.858 196.396 172.295C196.396 172.733 196.774 173.091 197.231 173.091ZM203.059 182.159C204.749 182.159 205.863 181.125 206.062 179.773H204.888C204.67 180.608 203.974 181.105 203.059 181.105C201.667 181.105 200.772 179.952 200.772 178.182C200.772 176.452 201.687 175.318 203.059 175.318C204.093 175.318 204.71 175.955 204.888 176.651H206.062C205.863 175.219 204.65 174.264 203.039 174.264C200.971 174.264 199.599 175.895 199.599 178.222C199.599 180.509 200.911 182.159 203.059 182.159ZM207.777 182H208.95V174.364H207.777V182ZM208.374 173.091C208.831 173.091 209.209 172.733 209.209 172.295C209.209 171.858 208.831 171.5 208.374 171.5C207.916 171.5 207.538 171.858 207.538 172.295C207.538 172.733 207.916 173.091 208.374 173.091ZM214.301 182.159C215.852 182.159 216.986 181.384 217.344 180.23L216.21 179.912C215.912 180.707 215.221 181.105 214.301 181.105C212.924 181.105 211.974 180.215 211.92 178.58H217.463V178.082C217.463 175.239 215.773 174.264 214.182 174.264C212.113 174.264 210.741 175.895 210.741 178.241C210.741 180.588 212.094 182.159 214.301 182.159ZM211.92 177.565C211.999 176.377 212.839 175.318 214.182 175.318C215.454 175.318 216.27 176.273 216.27 177.565H211.92ZM224.657 176.074C224.289 174.99 223.464 174.264 221.952 174.264C220.341 174.264 219.148 175.179 219.148 176.472C219.148 177.526 219.775 178.232 221.177 178.56L222.449 178.858C223.22 179.037 223.583 179.405 223.583 179.932C223.583 180.588 222.887 181.125 221.793 181.125C220.834 181.125 220.232 180.712 220.023 179.892L218.91 180.17C219.183 181.468 220.252 182.159 221.813 182.159C223.588 182.159 224.796 181.19 224.796 179.872C224.796 178.808 224.13 178.137 222.768 177.804L221.634 177.526C220.729 177.302 220.322 176.999 220.322 176.412C220.322 175.756 221.018 175.278 221.952 175.278C222.976 175.278 223.399 175.845 223.603 176.372L224.657 176.074ZM233.383 182.159C234.855 182.159 235.352 181.244 235.61 180.827H235.75V182H236.883V171.818H235.71V175.577H235.61C235.352 175.179 234.895 174.264 233.403 174.264C231.474 174.264 230.142 175.795 230.142 178.202C230.142 180.628 231.474 182.159 233.383 182.159ZM233.542 181.105C232.071 181.105 231.315 179.812 231.315 178.182C231.315 176.571 232.051 175.318 233.542 175.318C234.974 175.318 235.73 176.472 235.73 178.182C235.73 179.912 234.954 181.105 233.542 181.105ZM239.195 182H240.368V174.364H239.195V182ZM239.792 173.091C240.249 173.091 240.627 172.733 240.627 172.295C240.627 171.858 240.249 171.5 239.792 171.5C239.334 171.5 238.956 171.858 238.956 172.295C238.956 172.733 239.334 173.091 239.792 173.091ZM244.764 182.179C246.097 182.179 246.793 181.463 247.031 180.966H247.091V182H248.264V176.969C248.264 174.543 246.415 174.264 245.441 174.264C244.287 174.264 242.975 174.662 242.378 176.054L243.492 176.452C243.75 175.895 244.362 175.298 245.48 175.298C246.559 175.298 247.091 175.87 247.091 176.849V176.889C247.091 177.456 246.514 177.406 245.122 177.585C243.705 177.769 242.159 178.082 242.159 179.832C242.159 181.324 243.313 182.179 244.764 182.179ZM244.943 181.125C244.009 181.125 243.333 180.707 243.333 179.892C243.333 178.997 244.148 178.719 245.063 178.599C245.56 178.54 246.892 178.401 247.091 178.162V179.236C247.091 180.19 246.335 181.125 244.943 181.125ZM250.406 182H251.579V177.227C251.579 176.109 252.395 175.318 253.309 175.318C254.199 175.318 254.821 175.9 254.821 176.77V182H256.014V177.028C256.014 176.044 256.63 175.318 257.704 175.318C258.539 175.318 259.255 175.761 259.255 176.889V182H260.429V176.889C260.429 175.094 259.464 174.264 258.102 174.264C257.008 174.264 256.208 174.766 255.815 175.557H255.735C255.358 174.741 254.691 174.264 253.687 174.264C252.693 174.264 251.957 174.741 251.639 175.557H251.539V174.364H250.406V182ZM263.429 182.08C263.921 182.08 264.324 181.677 264.324 181.185C264.324 180.692 263.921 180.29 263.429 180.29C262.937 180.29 262.534 180.692 262.534 181.185C262.534 181.677 262.937 182.08 263.429 182.08Z" fill="#333333"/>
<path d="M29.7195 216.254C29.4062 213.991 27.6662 212.679 25.4091 212.679C22.7493 212.679 20.7457 214.618 20.7457 217.909C20.7457 221.195 22.7244 223.139 25.4091 223.139C27.8303 223.139 29.4361 221.573 29.7195 219.629L27.8601 219.619C27.6264 220.812 26.652 221.484 25.4339 221.484C23.7834 221.484 22.6001 220.246 22.6001 217.909C22.6001 215.612 23.7734 214.335 25.4389 214.335C26.6768 214.335 27.6463 215.036 27.8601 216.254H29.7195ZM40.5066 217.909C40.5066 214.618 38.498 212.679 35.8283 212.679C33.1536 212.679 31.15 214.618 31.15 217.909C31.15 221.195 33.1536 223.139 35.8283 223.139C38.498 223.139 40.5066 221.2 40.5066 217.909ZM38.6522 217.909C38.6522 220.226 37.4888 221.484 35.8283 221.484C34.1728 221.484 33.0044 220.226 33.0044 217.909C33.0044 215.592 34.1728 214.335 35.8283 214.335C37.4888 214.335 38.6522 215.592 38.6522 217.909ZM50.6175 212.818H48.783V219.759H48.6935L43.9009 212.818H42.2504V223H44.0948V216.065H44.1793L48.9769 223H50.6175V212.818ZM52.6273 223H54.4718V218.675H59.1898V223H61.0392V212.818H59.1898V217.129H54.4718V212.818H52.6273V223ZM63.0453 223H69.7072V221.454H64.8897V218.675H69.3244V217.129H64.8897V214.364H69.6674V212.818H63.0453V223ZM80.2644 216.254C79.9512 213.991 78.2111 212.679 75.954 212.679C73.2942 212.679 71.2907 214.618 71.2907 217.909C71.2907 220.967 73.0059 222.861 75.4071 223.109L75.2182 223.989C75.9242 224.064 76.2424 224.233 76.2324 224.656C76.2225 225.093 75.7402 225.287 74.9796 225.287L74.9995 226.172C76.5705 226.172 77.4505 225.55 77.4455 224.611C77.4455 223.885 76.9483 223.507 76.3269 223.413L76.3816 223.124C78.5641 222.95 79.9959 221.459 80.2644 219.629L78.405 219.619C78.1713 220.812 77.1969 221.484 75.9789 221.484C74.3283 221.484 73.1451 220.246 73.1451 217.909C73.1451 215.612 74.3184 214.335 75.9838 214.335C77.2218 214.335 78.1912 215.036 78.405 216.254H80.2644ZM83.138 223L83.9782 220.489H87.8063L88.6515 223H90.6202L87.0307 212.818H84.7537L81.1692 223H83.138ZM84.4753 219.008L85.8525 214.906H85.932L87.3091 219.008H84.4753ZM104.532 217.909C104.532 214.618 102.523 212.679 99.8537 212.679C97.179 212.679 95.1754 214.618 95.1754 217.909C95.1754 221.195 97.179 223.139 99.8537 223.139C102.523 223.139 104.532 221.2 104.532 217.909ZM102.678 217.909C102.678 220.226 101.514 221.484 99.8537 221.484C98.1982 221.484 97.0298 220.226 97.0298 217.909C97.0298 215.592 98.1982 214.335 99.8537 214.335C101.514 214.335 102.678 215.592 102.678 217.909ZM111.809 215.617H113.584C113.549 213.897 112.083 212.679 109.915 212.679C107.777 212.679 106.171 213.882 106.176 215.682C106.176 217.143 107.215 217.984 108.891 218.416L110.049 218.714C111.148 218.993 111.874 219.336 111.879 220.126C111.874 220.996 111.048 221.578 109.845 221.578C108.692 221.578 107.797 221.061 107.722 219.992H105.908C105.982 222.016 107.489 223.154 109.86 223.154C112.301 223.154 113.718 221.936 113.723 220.141C113.718 218.376 112.262 217.571 110.73 217.208L109.776 216.969C108.941 216.771 108.036 216.418 108.046 215.567C108.051 214.802 108.737 214.24 109.89 214.24C110.989 214.24 111.715 214.752 111.809 215.617ZM120.685 212.818H118.84V223H120.685V212.818ZM131.049 212.818H129.215V219.759H129.125L124.333 212.818H122.682V223H124.526V216.065H124.611L129.409 223H131.049V212.818ZM134.421 212.818H132.398L135.982 223H138.259L141.849 212.818H139.82L137.175 220.832H137.071L134.421 212.818ZM143.19 223H149.852V221.454H145.034V218.675H149.469V217.129H145.034V214.364H149.812V212.818H143.19V223ZM157.227 215.617H159.002C158.967 213.897 157.501 212.679 155.333 212.679C153.195 212.679 151.589 213.882 151.594 215.682C151.594 217.143 152.633 217.984 154.309 218.416L155.467 218.714C156.566 218.993 157.292 219.336 157.297 220.126C157.292 220.996 156.466 221.578 155.263 221.578C154.11 221.578 153.215 221.061 153.14 219.992H151.326C151.4 222.016 152.907 223.154 155.278 223.154C157.719 223.154 159.136 221.936 159.141 220.141C159.136 218.376 157.68 217.571 156.148 217.208L155.194 216.969C154.358 216.771 153.454 216.418 153.464 215.567C153.469 214.802 154.155 214.24 155.308 214.24C156.407 214.24 157.133 214.752 157.227 215.617ZM160.338 214.364H163.485V223H165.315V214.364H168.462V212.818H160.338V214.364ZM171.872 212.818H170.028V223H171.872V212.818ZM173.869 212.818V223H175.639V215.99H175.734L178.548 222.97H179.87L182.684 216.005H182.779V223H184.548V212.818H182.291L179.269 220.196H179.149L176.127 212.818H173.869ZM186.557 223H193.219V221.454H188.401V218.675H192.836V217.129H188.401V214.364H193.179V212.818H186.557V223ZM203.428 212.818H201.594V219.759H201.504L196.711 212.818H195.061V223H196.905V216.065H196.99L201.787 223H203.428V212.818ZM204.99 214.364H208.137V223H209.967V214.364H213.114V212.818H204.99V214.364ZM223.341 217.909C223.341 214.618 221.332 212.679 218.662 212.679C215.988 212.679 213.984 214.618 213.984 217.909C213.984 221.195 215.988 223.139 218.662 223.139C221.332 223.139 223.341 221.2 223.341 217.909ZM221.486 217.909C221.486 220.226 220.323 221.484 218.662 221.484C217.007 221.484 215.838 220.226 215.838 217.909C215.838 215.592 217.007 214.335 218.662 214.335C220.323 214.335 221.486 215.592 221.486 217.909ZM230.618 215.617H232.393C232.358 213.897 230.891 212.679 228.724 212.679C226.586 212.679 224.98 213.882 224.985 215.682C224.985 217.143 226.024 217.984 227.699 218.416L228.858 218.714C229.956 218.993 230.682 219.336 230.687 220.126C230.682 220.996 229.857 221.578 228.654 221.578C227.501 221.578 226.606 221.061 226.531 219.992H224.716C224.791 222.016 226.297 223.154 228.669 223.154C231.11 223.154 232.527 221.936 232.532 220.141C232.527 218.376 231.07 217.571 229.539 217.208L228.584 216.969C227.749 216.771 226.844 216.418 226.854 215.567C226.859 214.802 227.545 214.24 228.699 214.24C229.797 214.24 230.523 214.752 230.618 215.617Z" fill="#E51D37"/>
<path d="M20 225.814H233.168V227.022H20V225.814Z" fill="#E51D37"/>
<defs>
<linearGradient id="paint0_linear_2_212" x1="34.1313" y1="49.5604" x2="32.2209" y2="51.7625" gradientUnits="userSpaceOnUse">
<stop stop-color="#EB3850"/>
<stop offset="1" stop-color="#CB162E"/>
</linearGradient>
<linearGradient id="paint1_linear_2_212" x1="50.1728" y1="49.5604" x2="48.2624" y2="51.7625" gradientUnits="userSpaceOnUse">
<stop stop-color="#EB3850"/>
<stop offset="1" stop-color="#CB162E"/>
</linearGradient>
<linearGradient id="paint2_linear_2_212" x1="48.5687" y1="24.4115" x2="35.8843" y2="45.8551" gradientUnits="userSpaceOnUse">
<stop stop-color="#EB3850"/>
<stop offset="1" stop-color="#CB162E"/>
</linearGradient>
</defs>
</svg>
