<svg width="322" height="284" viewBox="0 0 322 284" fill="none" xmlns="http://www.w3.org/2000/svg">
<rect width="322" height="284" fill="white"/>
<path d="M37.5001 52.0834C45.5542 52.0834 52.0834 45.5542 52.0834 37.5C52.0834 29.4459 45.5542 22.9167 37.5001 22.9167C29.4459 22.9167 22.9167 29.4459 22.9167 37.5C22.9167 45.5542 29.4459 52.0834 37.5001 52.0834Z" stroke="url(#paint0_linear_2_221)" stroke-width="2" stroke-linecap="round" stroke-linejoin="round"/>
<path d="M37.5 28.75V37.5L43.3333 40.4167" stroke="url(#paint1_linear_2_221)" stroke-width="2" stroke-linecap="round" stroke-linejoin="round"/>
<path d="M20.504 97L25.238 83.86H28.226L33.104 97H31.286L26.876 85.012L27.74 85.444H25.616L26.534 85.012L22.268 97H20.504ZM23.33 93.076L23.924 91.492H29.594L30.188 93.076H23.33ZM38.648 97.108C37.928 97.108 37.304 97.006 36.776 96.802C36.26 96.598 35.858 96.25 35.57 95.758C35.294 95.254 35.156 94.576 35.156 93.724V84.472H36.812V93.94C36.812 94.456 36.95 94.858 37.226 95.146C37.514 95.422 37.916 95.56 38.432 95.56H40.124V97.108H38.648ZM33.5 88.684V87.388H40.124V88.684H33.5ZM46.3318 97.324C45.4918 97.324 44.7658 97.18 44.1538 96.892C43.5418 96.604 43.0438 96.226 42.6598 95.758C42.2758 95.278 41.9878 94.744 41.7958 94.156C41.6158 93.568 41.5258 92.968 41.5258 92.356V92.032C41.5258 91.408 41.6158 90.802 41.7958 90.214C41.9878 89.626 42.2758 89.098 42.6598 88.63C43.0438 88.15 43.5298 87.772 44.1178 87.496C44.7178 87.208 45.4198 87.064 46.2238 87.064C47.2678 87.064 48.1258 87.292 48.7978 87.748C49.4818 88.192 49.9858 88.768 50.3098 89.476C50.6458 90.184 50.8138 90.94 50.8138 91.744V92.518H42.2818V91.222H49.5538L49.1578 91.924C49.1578 91.24 49.0498 90.652 48.8338 90.16C48.6178 89.656 48.2938 89.266 47.8618 88.99C47.4298 88.714 46.8838 88.576 46.2238 88.576C45.5398 88.576 44.9698 88.732 44.5138 89.044C44.0698 89.356 43.7338 89.782 43.5058 90.322C43.2898 90.862 43.1818 91.486 43.1818 92.194C43.1818 92.878 43.2898 93.496 43.5058 94.048C43.7338 94.588 44.0818 95.02 44.5498 95.344C45.0178 95.656 45.6118 95.812 46.3318 95.812C47.0878 95.812 47.6998 95.644 48.1678 95.308C48.6478 94.972 48.9358 94.582 49.0318 94.138H50.6518C50.5198 94.798 50.2558 95.368 49.8598 95.848C49.4638 96.328 48.9658 96.694 48.3658 96.946C47.7658 97.198 47.0878 97.324 46.3318 97.324ZM53.0152 97V87.388H54.3832V91.51H54.1672C54.1672 90.562 54.2932 89.764 54.5452 89.116C54.8092 88.456 55.2052 87.958 55.7332 87.622C56.2612 87.274 56.9272 87.1 57.7312 87.1H57.8032C59.0152 87.1 59.9092 87.478 60.4852 88.234C61.0732 88.99 61.3672 90.082 61.3672 91.51V97H59.6392V91.15C59.6392 90.406 59.4292 89.812 59.0092 89.368C58.5892 88.912 58.0132 88.684 57.2812 88.684C56.5252 88.684 55.9132 88.918 55.4452 89.386C54.9772 89.854 54.7432 90.478 54.7432 91.258V97H53.0152ZM68.2909 97.324C67.6069 97.324 66.9769 97.198 66.4009 96.946C65.8249 96.694 65.3209 96.34 64.8889 95.884C64.4689 95.428 64.1389 94.9 63.8989 94.3C63.6709 93.7 63.5569 93.052 63.5569 92.356V92.032C63.5569 91.348 63.6709 90.706 63.8989 90.106C64.1269 89.506 64.4449 88.978 64.8529 88.522C65.2729 88.066 65.7649 87.712 66.3289 87.46C66.9049 87.196 67.5409 87.064 68.2369 87.064C68.9689 87.064 69.6349 87.22 70.2349 87.532C70.8349 87.832 71.3269 88.306 71.7109 88.954C72.0949 89.602 72.3109 90.442 72.3589 91.474L71.6389 90.322V83.86H73.3669V97H71.9989V92.734H72.5029C72.4549 93.826 72.2269 94.714 71.8189 95.398C71.4109 96.07 70.8949 96.562 70.2709 96.874C69.6589 97.174 68.9989 97.324 68.2909 97.324ZM68.5249 95.812C69.1129 95.812 69.6469 95.68 70.1269 95.416C70.6069 95.152 70.9909 94.774 71.2789 94.282C71.5669 93.778 71.7109 93.19 71.7109 92.518V91.69C71.7109 91.03 71.5609 90.472 71.2609 90.016C70.9729 89.548 70.5829 89.194 70.0909 88.954C69.6109 88.702 69.0829 88.576 68.5069 88.576C67.8709 88.576 67.3069 88.726 66.8149 89.026C66.3349 89.326 65.9569 89.746 65.6809 90.286C65.4169 90.826 65.2849 91.462 65.2849 92.194C65.2849 92.926 65.4229 93.568 65.6989 94.12C65.9749 94.66 66.3589 95.08 66.8509 95.38C67.3429 95.668 67.9009 95.812 68.5249 95.812ZM76.9031 97V87.388H78.6311V97H76.9031ZM75.4271 88.756V87.388H78.6311V88.756H75.4271ZM77.3891 85.84C77.0051 85.84 76.7171 85.738 76.5251 85.534C76.3451 85.33 76.2551 85.072 76.2551 84.76C76.2551 84.448 76.3451 84.19 76.5251 83.986C76.7171 83.782 77.0051 83.68 77.3891 83.68C77.7731 83.68 78.0551 83.782 78.2351 83.986C78.4271 84.19 78.5231 84.448 78.5231 84.76C78.5231 85.072 78.4271 85.33 78.2351 85.534C78.0551 85.738 77.7731 85.84 77.3891 85.84ZM81.7202 97V87.388H83.0882V91.51H82.8722C82.8722 90.574 82.9922 89.782 83.2322 89.134C83.4842 88.474 83.8562 87.97 84.3482 87.622C84.8402 87.274 85.4642 87.1 86.2202 87.1H86.2922C87.0482 87.1 87.6722 87.274 88.1642 87.622C88.6682 87.97 89.0402 88.474 89.2802 89.134C89.5202 89.782 89.6402 90.574 89.6402 91.51H89.1362C89.1362 90.574 89.2622 89.782 89.5142 89.134C89.7662 88.474 90.1382 87.97 90.6302 87.622C91.1342 87.274 91.7642 87.1 92.5202 87.1H92.5922C93.3482 87.1 93.9782 87.274 94.4822 87.622C94.9862 87.97 95.3582 88.474 95.5982 89.134C95.8502 89.782 95.9762 90.574 95.9762 91.51V97H94.2482V91.132C94.2482 90.352 94.0562 89.752 93.6722 89.332C93.2882 88.9 92.7542 88.684 92.0702 88.684C91.3622 88.684 90.7922 88.912 90.3602 89.368C89.9282 89.812 89.7122 90.436 89.7122 91.24V97H87.9842V91.132C87.9842 90.352 87.7922 89.752 87.4082 89.332C87.0242 88.9 86.4902 88.684 85.8062 88.684C85.0982 88.684 84.5282 88.912 84.0962 89.368C83.6642 89.812 83.4482 90.436 83.4482 91.24V97H81.7202ZM102.974 97.324C102.134 97.324 101.408 97.18 100.796 96.892C100.184 96.604 99.6861 96.226 99.3021 95.758C98.9181 95.278 98.6301 94.744 98.4381 94.156C98.2581 93.568 98.1681 92.968 98.1681 92.356V92.032C98.1681 91.408 98.2581 90.802 98.4381 90.214C98.6301 89.626 98.9181 89.098 99.3021 88.63C99.6861 88.15 100.172 87.772 100.76 87.496C101.36 87.208 102.062 87.064 102.866 87.064C103.91 87.064 104.768 87.292 105.44 87.748C106.124 88.192 106.628 88.768 106.952 89.476C107.288 90.184 107.456 90.94 107.456 91.744V92.518H98.9241V91.222H106.196L105.8 91.924C105.8 91.24 105.692 90.652 105.476 90.16C105.26 89.656 104.936 89.266 104.504 88.99C104.072 88.714 103.526 88.576 102.866 88.576C102.182 88.576 101.612 88.732 101.156 89.044C100.712 89.356 100.376 89.782 100.148 90.322C99.9321 90.862 99.8241 91.486 99.8241 92.194C99.8241 92.878 99.9321 93.496 100.148 94.048C100.376 94.588 100.724 95.02 101.192 95.344C101.66 95.656 102.254 95.812 102.974 95.812C103.73 95.812 104.342 95.644 104.81 95.308C105.29 94.972 105.578 94.582 105.674 94.138H107.294C107.162 94.798 106.898 95.368 106.502 95.848C106.106 96.328 105.608 96.694 105.008 96.946C104.408 97.198 103.73 97.324 102.974 97.324ZM109.658 97V87.388H111.026V91.51H110.81C110.81 90.562 110.936 89.764 111.188 89.116C111.452 88.456 111.848 87.958 112.376 87.622C112.904 87.274 113.57 87.1 114.374 87.1H114.446C115.658 87.1 116.552 87.478 117.128 88.234C117.716 88.99 118.01 90.082 118.01 91.51V97H116.282V91.15C116.282 90.406 116.072 89.812 115.652 89.368C115.232 88.912 114.656 88.684 113.924 88.684C113.168 88.684 112.556 88.918 112.088 89.386C111.62 89.854 111.386 90.478 111.386 91.258V97H109.658ZM124.663 97.108C123.943 97.108 123.319 97.006 122.791 96.802C122.275 96.598 121.873 96.25 121.585 95.758C121.309 95.254 121.171 94.576 121.171 93.724V84.472H122.827V93.94C122.827 94.456 122.965 94.858 123.241 95.146C123.529 95.422 123.931 95.56 124.447 95.56H126.139V97.108H124.663ZM119.515 88.684V87.388H126.139V88.684H119.515ZM132.689 97.324C131.849 97.324 131.111 97.18 130.475 96.892C129.839 96.604 129.299 96.226 128.855 95.758C128.423 95.278 128.093 94.744 127.865 94.156C127.649 93.568 127.541 92.968 127.541 92.356V92.032C127.541 91.42 127.655 90.82 127.883 90.232C128.111 89.632 128.447 89.098 128.891 88.63C129.335 88.15 129.875 87.772 130.511 87.496C131.147 87.208 131.873 87.064 132.689 87.064C133.505 87.064 134.231 87.208 134.867 87.496C135.503 87.772 136.043 88.15 136.487 88.63C136.931 89.098 137.267 89.632 137.495 90.232C137.723 90.82 137.837 91.42 137.837 92.032V92.356C137.837 92.968 137.723 93.568 137.495 94.156C137.279 94.744 136.949 95.278 136.505 95.758C136.073 96.226 135.539 96.604 134.903 96.892C134.267 97.18 133.529 97.324 132.689 97.324ZM132.689 95.776C133.409 95.776 134.021 95.62 134.525 95.308C135.041 94.984 135.431 94.552 135.695 94.012C135.971 93.472 136.109 92.866 136.109 92.194C136.109 91.51 135.971 90.898 135.695 90.358C135.419 89.818 135.023 89.392 134.507 89.08C134.003 88.768 133.397 88.612 132.689 88.612C131.993 88.612 131.387 88.768 130.871 89.08C130.355 89.392 129.959 89.818 129.683 90.358C129.407 90.898 129.269 91.51 129.269 92.194C129.269 92.866 129.401 93.472 129.665 94.012C129.941 94.552 130.331 94.984 130.835 95.308C131.351 95.62 131.969 95.776 132.689 95.776ZM143.729 97V94.84C143.729 94.312 143.801 93.862 143.945 93.49C144.101 93.118 144.365 92.782 144.737 92.482C145.109 92.17 145.613 91.87 146.249 91.582L148.715 90.448C149.315 90.172 149.789 89.818 150.137 89.386C150.485 88.942 150.659 88.372 150.659 87.676C150.659 86.836 150.425 86.182 149.957 85.714C149.489 85.246 148.829 85.012 147.977 85.012C147.137 85.012 146.477 85.246 145.997 85.714C145.517 86.182 145.277 86.836 145.277 87.676H143.585C143.585 86.92 143.741 86.224 144.053 85.588C144.377 84.952 144.863 84.448 145.511 84.076C146.159 83.692 146.981 83.5 147.977 83.5C148.973 83.5 149.789 83.692 150.425 84.076C151.073 84.448 151.553 84.94 151.865 85.552C152.189 86.164 152.351 86.83 152.351 87.55V87.802C152.351 88.75 152.075 89.548 151.523 90.196C150.983 90.844 150.251 91.378 149.327 91.798L146.861 92.932C146.309 93.184 145.937 93.436 145.745 93.688C145.553 93.94 145.457 94.276 145.457 94.696V96.352L144.989 95.524H152.513V97H143.729ZM154.1 93.886V91.762L159.554 83.536L160.76 84.49L155.666 92.194L155.828 92.518H164.324V93.886H154.1ZM160.958 97V87.694H162.578V97H160.958ZM166.189 97V83.86H167.917V91.708H167.485C167.485 90.76 167.605 89.944 167.845 89.26C168.097 88.564 168.481 88.03 168.997 87.658C169.513 87.286 170.173 87.1 170.977 87.1H171.049C172.201 87.1 173.071 87.484 173.659 88.252C174.247 89.008 174.541 90.094 174.541 91.51V97H172.813V91.15C172.813 90.37 172.591 89.764 172.147 89.332C171.715 88.9 171.151 88.684 170.455 88.684C169.687 88.684 169.069 88.942 168.601 89.458C168.145 89.962 167.917 90.628 167.917 91.456V97H166.189Z" fill="#333333"/>
<path opacity="0.75" d="M21.233 134H27.1989V132.906H22.4659V123.818H21.233V134ZM32.0511 134.159C34.1193 134.159 35.5114 132.588 35.5114 130.222C35.5114 127.835 34.1193 126.264 32.0511 126.264C29.983 126.264 28.5909 127.835 28.5909 130.222C28.5909 132.588 29.983 134.159 32.0511 134.159ZM32.0511 133.105C30.4801 133.105 29.7642 131.753 29.7642 130.222C29.7642 128.69 30.4801 127.318 32.0511 127.318C33.6222 127.318 34.3381 128.69 34.3381 130.222C34.3381 131.753 33.6222 133.105 32.0511 133.105ZM37.3024 134H38.4757V129.168C38.4757 128.134 39.291 127.378 40.4047 127.378C40.7179 127.378 41.041 127.438 41.1206 127.457V126.264C40.9863 126.254 40.6781 126.244 40.5041 126.244C39.5893 126.244 38.7939 126.761 38.5154 127.517H38.4359V126.364H37.3024V134ZM45.4806 134.159C47.0318 134.159 48.1653 133.384 48.5233 132.23L47.3897 131.912C47.0914 132.707 46.4004 133.105 45.4806 133.105C44.1035 133.105 43.1539 132.215 43.0993 130.58H48.6426V130.082C48.6426 127.239 46.9522 126.264 45.3613 126.264C43.2931 126.264 41.921 127.895 41.921 130.241C41.921 132.588 43.2733 134.159 45.4806 134.159ZM43.0993 129.565C43.1788 128.377 44.019 127.318 45.3613 127.318C46.6341 127.318 47.4494 128.273 47.4494 129.565H43.0993ZM50.4274 134H51.6007V129.227C51.6007 128.109 52.416 127.318 53.3308 127.318C54.2207 127.318 54.8422 127.9 54.8422 128.77V134H56.0353V129.028C56.0353 128.044 56.6518 127.318 57.7257 127.318C58.5609 127.318 59.2768 127.761 59.2768 128.889V134H60.4501V128.889C60.4501 127.094 59.4856 126.264 58.1234 126.264C57.0297 126.264 56.2292 126.766 55.8365 127.557H55.7569C55.3791 126.741 54.7129 126.264 53.7086 126.264C52.7143 126.264 51.9785 126.741 51.6603 127.557H51.5609V126.364H50.4274V134ZM66.5328 134H67.7061V126.364H66.5328V134ZM67.1294 125.091C67.5868 125.091 67.9647 124.733 67.9647 124.295C67.9647 123.858 67.5868 123.5 67.1294 123.5C66.6721 123.5 66.2942 123.858 66.2942 124.295C66.2942 124.733 66.6721 125.091 67.1294 125.091ZM69.8551 136.864H71.0284V132.827H71.1278C71.3864 133.244 71.8835 134.159 73.3551 134.159C75.2642 134.159 76.5966 132.628 76.5966 130.202C76.5966 127.795 75.2642 126.264 73.3352 126.264C71.8438 126.264 71.3864 127.179 71.1278 127.577H70.9886V126.364H69.8551V136.864ZM71.0085 130.182C71.0085 128.472 71.7642 127.318 73.196 127.318C74.6875 127.318 75.4233 128.571 75.4233 130.182C75.4233 131.812 74.6676 133.105 73.196 133.105C71.7841 133.105 71.0085 131.912 71.0085 130.182ZM83.7955 128.074C83.4276 126.99 82.6023 126.264 81.0909 126.264C79.4801 126.264 78.2869 127.179 78.2869 128.472C78.2869 129.526 78.9134 130.232 80.3153 130.56L81.5881 130.858C82.3587 131.037 82.7216 131.405 82.7216 131.932C82.7216 132.588 82.0256 133.125 80.9318 133.125C79.9723 133.125 79.3707 132.712 79.1619 131.892L78.0483 132.17C78.3217 133.468 79.3906 134.159 80.9517 134.159C82.7266 134.159 83.9347 133.19 83.9347 131.872C83.9347 130.808 83.2685 130.137 81.9062 129.804L80.7727 129.526C79.8679 129.302 79.4602 128.999 79.4602 128.412C79.4602 127.756 80.1562 127.278 81.0909 127.278C82.1151 127.278 82.5376 127.845 82.7415 128.372L83.7955 128.074ZM90.5133 130.878C90.5133 132.31 89.4196 132.966 88.5446 132.966C87.5701 132.966 86.8741 132.25 86.8741 131.136V126.364H85.7008V131.216C85.7008 133.165 86.7349 134.099 88.1667 134.099C89.3201 134.099 90.0758 133.483 90.4338 132.707H90.5133V134H91.6866V126.364H90.5133V130.878ZM93.8356 134H95.0089V129.227C95.0089 128.109 95.8242 127.318 96.739 127.318C97.6289 127.318 98.2504 127.9 98.2504 128.77V134H99.4435V129.028C99.4435 128.044 100.06 127.318 101.134 127.318C101.969 127.318 102.685 127.761 102.685 128.889V134H103.858V128.889C103.858 127.094 102.894 126.264 101.532 126.264C100.438 126.264 99.6374 126.766 99.2447 127.557H99.1651C98.7873 126.741 98.1211 126.264 97.1168 126.264C96.1225 126.264 95.3867 126.741 95.0685 127.557H94.9691V126.364H93.8356V134ZM112.825 134.159C114.296 134.159 114.793 133.244 115.052 132.827H115.191V134H116.325V123.818H115.151V127.577H115.052C114.793 127.179 114.336 126.264 112.844 126.264C110.915 126.264 109.583 127.795 109.583 130.202C109.583 132.628 110.915 134.159 112.825 134.159ZM112.984 133.105C111.512 133.105 110.756 131.812 110.756 130.182C110.756 128.571 111.492 127.318 112.984 127.318C114.415 127.318 115.171 128.472 115.171 130.182C115.171 131.912 114.396 133.105 112.984 133.105ZM121.739 134.159C123.807 134.159 125.199 132.588 125.199 130.222C125.199 127.835 123.807 126.264 121.739 126.264C119.67 126.264 118.278 127.835 118.278 130.222C118.278 132.588 119.67 134.159 121.739 134.159ZM121.739 133.105C120.168 133.105 119.452 131.753 119.452 130.222C119.452 128.69 120.168 127.318 121.739 127.318C123.31 127.318 124.026 128.69 124.026 130.222C124.026 131.753 123.31 133.105 121.739 133.105ZM128.163 123.818H126.99V134H128.163V123.818ZM133.414 134.159C135.483 134.159 136.875 132.588 136.875 130.222C136.875 127.835 135.483 126.264 133.414 126.264C131.346 126.264 129.954 127.835 129.954 130.222C129.954 132.588 131.346 134.159 133.414 134.159ZM133.414 133.105C131.843 133.105 131.127 131.753 131.127 130.222C131.127 128.69 131.843 127.318 133.414 127.318C134.985 127.318 135.701 128.69 135.701 130.222C135.701 131.753 134.985 133.105 133.414 133.105ZM138.666 134H139.839V129.168C139.839 128.134 140.654 127.378 141.768 127.378C142.081 127.378 142.404 127.438 142.484 127.457V126.264C142.35 126.254 142.041 126.244 141.867 126.244C140.953 126.244 140.157 126.761 139.879 127.517H139.799V126.364H138.666V134ZM153.221 128.074C152.853 126.99 152.028 126.264 150.517 126.264C148.906 126.264 147.713 127.179 147.713 128.472C147.713 129.526 148.339 130.232 149.741 130.56L151.014 130.858C151.784 131.037 152.147 131.405 152.147 131.932C152.147 132.588 151.451 133.125 150.358 133.125C149.398 133.125 148.797 132.712 148.588 131.892L147.474 132.17C147.748 133.468 148.816 134.159 150.377 134.159C152.152 134.159 153.36 133.19 153.36 131.872C153.36 130.808 152.694 130.137 151.332 129.804L150.199 129.526C149.294 129.302 148.886 128.999 148.886 128.412C148.886 127.756 149.582 127.278 150.517 127.278C151.541 127.278 151.963 127.845 152.167 128.372L153.221 128.074ZM155.127 134H156.3V126.364H155.127V134ZM155.723 125.091C156.181 125.091 156.558 124.733 156.558 124.295C156.558 123.858 156.181 123.5 155.723 123.5C155.266 123.5 154.888 123.858 154.888 124.295C154.888 124.733 155.266 125.091 155.723 125.091ZM161.77 126.364H160.139V124.534H158.966V126.364H157.812V127.358H158.966V132.131C158.966 133.463 160.04 134.099 161.034 134.099C161.472 134.099 161.75 134.02 161.909 133.96L161.67 132.906C161.571 132.926 161.412 132.966 161.153 132.966C160.636 132.966 160.139 132.807 160.139 131.812V127.358H161.77V126.364ZM169.719 134.179C171.052 134.179 171.748 133.463 171.987 132.966H172.046V134H173.219V128.969C173.219 126.543 171.37 126.264 170.396 126.264C169.242 126.264 167.93 126.662 167.333 128.054L168.447 128.452C168.705 127.895 169.317 127.298 170.435 127.298C171.514 127.298 172.046 127.87 172.046 128.849V128.889C172.046 129.456 171.469 129.406 170.077 129.585C168.661 129.769 167.114 130.082 167.114 131.832C167.114 133.324 168.268 134.179 169.719 134.179ZM169.898 133.125C168.964 133.125 168.288 132.707 168.288 131.892C168.288 130.997 169.103 130.719 170.018 130.599C170.515 130.54 171.847 130.401 172.046 130.162V131.236C172.046 132.19 171.29 133.125 169.898 133.125ZM175.361 134H176.534V129.227C176.534 128.109 177.35 127.318 178.264 127.318C179.154 127.318 179.776 127.9 179.776 128.77V134H180.969V129.028C180.969 128.044 181.585 127.318 182.659 127.318C183.494 127.318 184.21 127.761 184.21 128.889V134H185.384V128.889C185.384 127.094 184.419 126.264 183.057 126.264C181.963 126.264 181.163 126.766 180.77 127.557H180.691C180.313 126.741 179.646 126.264 178.642 126.264C177.648 126.264 176.912 126.741 176.594 127.557H176.494V126.364H175.361V134ZM190.731 134.159C192.282 134.159 193.415 133.384 193.773 132.23L192.64 131.912C192.341 132.707 191.65 133.105 190.731 133.105C189.354 133.105 188.404 132.215 188.349 130.58H193.893V130.082C193.893 127.239 192.202 126.264 190.611 126.264C188.543 126.264 187.171 127.895 187.171 130.241C187.171 132.588 188.523 134.159 190.731 134.159ZM188.349 129.565C188.429 128.377 189.269 127.318 190.611 127.318C191.884 127.318 192.699 128.273 192.699 129.565H188.349ZM198.998 126.364H197.368V124.534H196.194V126.364H195.041V127.358H196.194V132.131C196.194 133.463 197.268 134.099 198.263 134.099C198.7 134.099 198.979 134.02 199.138 133.96L198.899 132.906C198.8 132.926 198.64 132.966 198.382 132.966C197.865 132.966 197.368 132.807 197.368 131.812V127.358H198.998V126.364ZM202.513 132.608H201.241L201.181 133.165C201.037 134.512 200.753 135.854 200.624 136.486H201.519C201.758 135.81 202.265 134.278 202.434 133.145L202.513 132.608ZM211.727 134.159C213.417 134.159 214.531 133.125 214.73 131.773H213.556C213.338 132.608 212.642 133.105 211.727 133.105C210.335 133.105 209.44 131.952 209.44 130.182C209.44 128.452 210.355 127.318 211.727 127.318C212.761 127.318 213.377 127.955 213.556 128.651H214.73C214.531 127.219 213.318 126.264 211.707 126.264C209.639 126.264 208.267 127.895 208.267 130.222C208.267 132.509 209.579 134.159 211.727 134.159ZM219.547 134.159C221.615 134.159 223.007 132.588 223.007 130.222C223.007 127.835 221.615 126.264 219.547 126.264C217.479 126.264 216.087 127.835 216.087 130.222C216.087 132.588 217.479 134.159 219.547 134.159ZM219.547 133.105C217.976 133.105 217.26 131.753 217.26 130.222C217.26 128.69 217.976 127.318 219.547 127.318C221.118 127.318 221.834 128.69 221.834 130.222C221.834 131.753 221.118 133.105 219.547 133.105ZM225.972 129.406C225.972 128.074 226.797 127.318 227.921 127.318C229.009 127.318 229.671 128.029 229.671 129.227V134H230.844V129.148C230.844 127.199 229.805 126.264 228.259 126.264C227.105 126.264 226.389 126.781 226.031 127.557H225.932V126.364H224.798V134H225.972V129.406ZM238.397 128.074C238.029 126.99 237.204 126.264 235.692 126.264C234.082 126.264 232.888 127.179 232.888 128.472C232.888 129.526 233.515 130.232 234.917 130.56L236.19 130.858C236.96 131.037 237.323 131.405 237.323 131.932C237.323 132.588 236.627 133.125 235.533 133.125C234.574 133.125 233.972 132.712 233.763 131.892L232.65 132.17C232.923 133.468 233.992 134.159 235.553 134.159C237.328 134.159 238.536 133.19 238.536 131.872C238.536 130.808 237.87 130.137 236.508 129.804L235.374 129.526C234.469 129.302 234.062 128.999 234.062 128.412C234.062 127.756 234.758 127.278 235.692 127.278C236.717 127.278 237.139 127.845 237.343 128.372L238.397 128.074ZM243.504 134.159C245.055 134.159 246.189 133.384 246.547 132.23L245.413 131.912C245.115 132.707 244.424 133.105 243.504 133.105C242.127 133.105 241.177 132.215 241.123 130.58H246.666V130.082C246.666 127.239 244.976 126.264 243.385 126.264C241.317 126.264 239.944 127.895 239.944 130.241C239.944 132.588 241.297 134.159 243.504 134.159ZM241.123 129.565C241.202 128.377 242.042 127.318 243.385 127.318C244.657 127.318 245.473 128.273 245.473 129.565H241.123ZM251.553 134.159C253.243 134.159 254.357 133.125 254.556 131.773H253.383C253.164 132.608 252.468 133.105 251.553 133.105C250.161 133.105 249.266 131.952 249.266 130.182C249.266 128.452 250.181 127.318 251.553 127.318C252.587 127.318 253.204 127.955 253.383 128.651H254.556C254.357 127.219 253.144 126.264 251.533 126.264C249.465 126.264 248.093 127.895 248.093 130.222C248.093 132.509 249.405 134.159 251.553 134.159ZM259.592 126.364H257.961V124.534H256.788V126.364H255.635V127.358H256.788V132.131C256.788 133.463 257.862 134.099 258.856 134.099C259.294 134.099 259.572 134.02 259.731 133.96L259.493 132.906C259.393 132.926 259.234 132.966 258.976 132.966C258.459 132.966 257.961 132.807 257.961 131.812V127.358H259.592V126.364ZM264.477 134.159C266.028 134.159 267.161 133.384 267.519 132.23L266.386 131.912C266.088 132.707 265.396 133.105 264.477 133.105C263.1 133.105 262.15 132.215 262.095 130.58H267.639V130.082C267.639 127.239 265.948 126.264 264.357 126.264C262.289 126.264 260.917 127.895 260.917 130.241C260.917 132.588 262.269 134.159 264.477 134.159ZM262.095 129.565C262.175 128.377 263.015 127.318 264.357 127.318C265.63 127.318 266.445 128.273 266.445 129.565H262.095ZM272.744 126.364H271.114V124.534H269.941V126.364H268.787V127.358H269.941V132.131C269.941 133.463 271.014 134.099 272.009 134.099C272.446 134.099 272.725 134.02 272.884 133.96L272.645 132.906C272.546 132.926 272.387 132.966 272.128 132.966C271.611 132.966 271.114 132.807 271.114 131.812V127.358H272.744V126.364ZM279.322 130.878C279.322 132.31 278.228 132.966 277.353 132.966C276.379 132.966 275.683 132.25 275.683 131.136V126.364H274.509V131.216C274.509 133.165 275.544 134.099 276.975 134.099C278.129 134.099 278.884 133.483 279.242 132.707H279.322V134H280.495V126.364H279.322V130.878ZM282.644 134H283.817V129.168C283.817 128.134 284.633 127.378 285.746 127.378C286.06 127.378 286.383 127.438 286.462 127.457V126.264C286.328 126.254 286.02 126.244 285.846 126.244C284.931 126.244 284.136 126.761 283.857 127.517H283.778V126.364H282.644V134ZM23.321 158.179C24.6534 158.179 25.3494 157.463 25.5881 156.966H25.6477V158H26.821V152.969C26.821 150.543 24.9716 150.264 23.9972 150.264C22.8438 150.264 21.5312 150.662 20.9347 152.054L22.0483 152.452C22.3068 151.895 22.9183 151.298 24.0369 151.298C25.1158 151.298 25.6477 151.87 25.6477 152.849V152.889C25.6477 153.456 25.071 153.406 23.679 153.585C22.2621 153.769 20.7159 154.082 20.7159 155.832C20.7159 157.324 21.8693 158.179 23.321 158.179ZM23.5 157.125C22.5653 157.125 21.8892 156.707 21.8892 155.892C21.8892 154.997 22.7045 154.719 23.6193 154.599C24.1165 154.54 25.4489 154.401 25.6477 154.162V155.236C25.6477 156.19 24.892 157.125 23.5 157.125ZM31.8461 158.159C33.3176 158.159 33.8148 157.244 34.0733 156.827H34.2125V158H35.3461V147.818H34.1728V151.577H34.0733C33.8148 151.179 33.3574 150.264 31.8659 150.264C29.937 150.264 28.6046 151.795 28.6046 154.202C28.6046 156.628 29.937 158.159 31.8461 158.159ZM32.0051 157.105C30.5336 157.105 29.7779 155.812 29.7779 154.182C29.7779 152.571 30.5137 151.318 32.0051 151.318C33.437 151.318 34.1926 152.472 34.1926 154.182C34.1926 155.912 33.4171 157.105 32.0051 157.105ZM37.6578 158H38.8311V150.364H37.6578V158ZM38.2544 149.091C38.7118 149.091 39.0897 148.733 39.0897 148.295C39.0897 147.858 38.7118 147.5 38.2544 147.5C37.7971 147.5 37.4192 147.858 37.4192 148.295C37.4192 148.733 37.7971 149.091 38.2544 149.091ZM40.9801 160.864H42.1534V156.827H42.2528C42.5114 157.244 43.0085 158.159 44.4801 158.159C46.3892 158.159 47.7216 156.628 47.7216 154.202C47.7216 151.795 46.3892 150.264 44.4602 150.264C42.9688 150.264 42.5114 151.179 42.2528 151.577H42.1136V150.364H40.9801V160.864ZM42.1335 154.182C42.1335 152.472 42.8892 151.318 44.321 151.318C45.8125 151.318 46.5483 152.571 46.5483 154.182C46.5483 155.812 45.7926 157.105 44.321 157.105C42.9091 157.105 42.1335 155.912 42.1335 154.182ZM49.5114 158H50.6847V150.364H49.5114V158ZM50.108 149.091C50.5653 149.091 50.9432 148.733 50.9432 148.295C50.9432 147.858 50.5653 147.5 50.108 147.5C49.6506 147.5 49.2727 147.858 49.2727 148.295C49.2727 148.733 49.6506 149.091 50.108 149.091ZM58.2427 152.074C57.8748 150.99 57.0495 150.264 55.5382 150.264C53.9274 150.264 52.7342 151.179 52.7342 152.472C52.7342 153.526 53.3606 154.232 54.7626 154.56L56.0353 154.858C56.8059 155.037 57.1689 155.405 57.1689 155.932C57.1689 156.588 56.4728 157.125 55.3791 157.125C54.4196 157.125 53.818 156.712 53.6092 155.892L52.4956 156.17C52.769 157.468 53.8379 158.159 55.399 158.159C57.1738 158.159 58.3819 157.19 58.3819 155.872C58.3819 154.808 57.7157 154.137 56.3535 153.804L55.22 153.526C54.3152 153.302 53.9075 152.999 53.9075 152.412C53.9075 151.756 54.6035 151.278 55.5382 151.278C56.5623 151.278 56.9849 151.845 57.1887 152.372L58.2427 152.074ZM63.2504 158.159C64.9407 158.159 66.0543 157.125 66.2532 155.773H65.0799C64.8612 156.608 64.1651 157.105 63.2504 157.105C61.8583 157.105 60.9634 155.952 60.9634 154.182C60.9634 152.452 61.8782 151.318 63.2504 151.318C64.2844 151.318 64.9009 151.955 65.0799 152.651H66.2532C66.0543 151.219 64.8413 150.264 63.2305 150.264C61.1623 150.264 59.7901 151.895 59.7901 154.222C59.7901 156.509 61.1026 158.159 63.2504 158.159ZM67.9684 158H69.1417V150.364H67.9684V158ZM68.565 149.091C69.0224 149.091 69.4002 148.733 69.4002 148.295C69.4002 147.858 69.0224 147.5 68.565 147.5C68.1076 147.5 67.7298 147.858 67.7298 148.295C67.7298 148.733 68.1076 149.091 68.565 149.091ZM72.464 153.406C72.464 152.074 73.2892 151.318 74.4128 151.318C75.5016 151.318 76.1628 152.029 76.1628 153.227V158H77.3361V153.148C77.3361 151.199 76.2971 150.264 74.7509 150.264C73.5975 150.264 72.8816 150.781 72.5236 151.557H72.4242V150.364H71.2907V158H72.464V153.406ZM82.5625 161.023C84.392 161.023 85.8636 160.188 85.8636 158.219V150.364H84.7301V151.577H84.6108C84.3523 151.179 83.875 150.264 82.3835 150.264C80.4545 150.264 79.1222 151.795 79.1222 154.142C79.1222 156.528 80.5142 157.881 82.3636 157.881C83.8551 157.881 84.3324 157.006 84.5909 156.588H84.6903V158.139C84.6903 159.412 83.7955 159.989 82.5625 159.989C81.1754 159.989 80.6882 159.258 80.375 158.835L79.4403 159.491C79.9176 160.292 80.8572 161.023 82.5625 161.023ZM82.5227 156.827C81.0511 156.827 80.2955 155.713 80.2955 154.122C80.2955 152.571 81.0312 151.318 82.5227 151.318C83.9545 151.318 84.7102 152.472 84.7102 154.122C84.7102 155.812 83.9347 156.827 82.5227 156.827ZM95.1506 158.159C96.7017 158.159 97.8352 157.384 98.1932 156.23L97.0597 155.912C96.7614 156.707 96.0703 157.105 95.1506 157.105C93.7734 157.105 92.8239 156.215 92.7692 154.58H98.3125V154.082C98.3125 151.239 96.6222 150.264 95.0312 150.264C92.9631 150.264 91.5909 151.895 91.5909 154.241C91.5909 156.588 92.9432 158.159 95.1506 158.159ZM92.7692 153.565C92.8487 152.377 93.6889 151.318 95.0312 151.318C96.304 151.318 97.1193 152.273 97.1193 153.565H92.7692ZM101.271 147.818H100.097V158H101.271V147.818ZM103.42 158H104.593V150.364H103.42V158ZM104.016 149.091C104.474 149.091 104.851 148.733 104.851 148.295C104.851 147.858 104.474 147.5 104.016 147.5C103.559 147.5 103.181 147.858 103.181 148.295C103.181 148.733 103.559 149.091 104.016 149.091ZM110.063 150.364H108.432V148.534H107.259V150.364H106.105V151.358H107.259V156.131C107.259 157.463 108.333 158.099 109.327 158.099C109.765 158.099 110.043 158.02 110.202 157.96L109.963 156.906C109.864 156.926 109.705 156.966 109.446 156.966C108.929 156.966 108.432 156.807 108.432 155.812V151.358H110.063V150.364ZM112.683 158.08C113.175 158.08 113.578 157.677 113.578 157.185C113.578 156.692 113.175 156.29 112.683 156.29C112.191 156.29 111.788 156.692 111.788 157.185C111.788 157.677 112.191 158.08 112.683 158.08ZM120.197 158L121.222 155.116H125.338L126.362 158H127.655L123.916 147.818H122.643L118.905 158H120.197ZM121.609 154.023L123.24 149.429H123.32L124.95 154.023H121.609ZM132.283 158.159C133.835 158.159 134.968 157.384 135.326 156.23L134.192 155.912C133.894 156.707 133.203 157.105 132.283 157.105C130.906 157.105 129.957 156.215 129.902 154.58H135.445V154.082C135.445 151.239 133.755 150.264 132.164 150.264C130.096 150.264 128.724 151.895 128.724 154.241C128.724 156.588 130.076 158.159 132.283 158.159ZM129.902 153.565C129.982 152.377 130.822 151.318 132.164 151.318C133.437 151.318 134.252 152.273 134.252 153.565H129.902ZM138.403 153.406C138.403 152.074 139.229 151.318 140.352 151.318C141.441 151.318 142.102 152.029 142.102 153.227V158H143.276V153.148C143.276 151.199 142.237 150.264 140.69 150.264C139.537 150.264 138.821 150.781 138.463 151.557H138.364V150.364H137.23V158H138.403V153.406ZM148.621 158.159C150.172 158.159 151.306 157.384 151.664 156.23L150.53 155.912C150.232 156.707 149.541 157.105 148.621 157.105C147.244 157.105 146.295 156.215 146.24 154.58H151.783V154.082C151.783 151.239 150.093 150.264 148.502 150.264C146.434 150.264 145.062 151.895 145.062 154.241C145.062 156.588 146.414 158.159 148.621 158.159ZM146.24 153.565C146.319 152.377 147.16 151.318 148.502 151.318C149.775 151.318 150.59 152.273 150.59 153.565H146.24ZM155.815 158.179C157.148 158.179 157.844 157.463 158.082 156.966H158.142V158H159.315V152.969C159.315 150.543 157.466 150.264 156.491 150.264C155.338 150.264 154.025 150.662 153.429 152.054L154.542 152.452C154.801 151.895 155.412 151.298 156.531 151.298C157.61 151.298 158.142 151.87 158.142 152.849V152.889C158.142 153.456 157.565 153.406 156.173 153.585C154.756 153.769 153.21 154.082 153.21 155.832C153.21 157.324 154.363 158.179 155.815 158.179ZM155.994 157.125C155.059 157.125 154.383 156.707 154.383 155.892C154.383 154.997 155.199 154.719 156.113 154.599C156.611 154.54 157.943 154.401 158.142 154.162V155.236C158.142 156.19 157.386 157.125 155.994 157.125ZM162.63 153.406C162.63 152.074 163.455 151.318 164.579 151.318C165.668 151.318 166.329 152.029 166.329 153.227V158H167.502V153.148C167.502 151.199 166.463 150.264 164.917 150.264C163.763 150.264 163.048 150.781 162.69 151.557H162.59V150.364H161.457V158H162.63V153.406ZM179.828 150.364H178.555L176.447 156.449H176.368L174.26 150.364H172.987L175.811 158H177.004L179.828 150.364ZM181.377 158H182.55V150.364H181.377V158ZM181.973 149.091C182.431 149.091 182.808 148.733 182.808 148.295C182.808 147.858 182.431 147.5 181.973 147.5C181.516 147.5 181.138 147.858 181.138 148.295C181.138 148.733 181.516 149.091 181.973 149.091ZM188.02 150.364H186.389V148.534H185.216V150.364H184.062V151.358H185.216V156.131C185.216 157.463 186.29 158.099 187.284 158.099C187.722 158.099 188 158.02 188.159 157.96L187.92 156.906C187.821 156.926 187.662 156.966 187.403 156.966C186.886 156.966 186.389 156.807 186.389 155.812V151.358H188.02V150.364ZM192.032 158.179C193.364 158.179 194.06 157.463 194.299 156.966H194.359V158H195.532V152.969C195.532 150.543 193.683 150.264 192.708 150.264C191.555 150.264 190.242 150.662 189.646 152.054L190.759 152.452C191.018 151.895 191.629 151.298 192.748 151.298C193.827 151.298 194.359 151.87 194.359 152.849V152.889C194.359 153.456 193.782 153.406 192.39 153.585C190.973 153.769 189.427 154.082 189.427 155.832C189.427 157.324 190.58 158.179 192.032 158.179ZM192.211 157.125C191.276 157.125 190.6 156.707 190.6 155.892C190.6 154.997 191.415 154.719 192.33 154.599C192.827 154.54 194.16 154.401 194.359 154.162V155.236C194.359 156.19 193.603 157.125 192.211 157.125ZM200.875 158.159C202.426 158.159 203.56 157.384 203.918 156.23L202.784 155.912C202.486 156.707 201.795 157.105 200.875 157.105C199.498 157.105 198.548 156.215 198.494 154.58H204.037V154.082C204.037 151.239 202.347 150.264 200.756 150.264C198.688 150.264 197.316 151.895 197.316 154.241C197.316 156.588 198.668 158.159 200.875 158.159ZM198.494 153.565C198.573 152.377 199.414 151.318 200.756 151.318C202.029 151.318 202.844 152.273 202.844 153.565H198.494ZM210.933 147.818H209.759V158H210.933V147.818ZM216.283 158.159C217.835 158.159 218.968 157.384 219.326 156.23L218.192 155.912C217.894 156.707 217.203 157.105 216.283 157.105C214.906 157.105 213.957 156.215 213.902 154.58H219.445V154.082C219.445 151.239 217.755 150.264 216.164 150.264C214.096 150.264 212.724 151.895 212.724 154.241C212.724 156.588 214.076 158.159 216.283 158.159ZM213.902 153.565C213.982 152.377 214.822 151.318 216.164 151.318C217.437 151.318 218.252 152.273 218.252 153.565H213.902ZM224.332 158.159C226.401 158.159 227.793 156.588 227.793 154.222C227.793 151.835 226.401 150.264 224.332 150.264C222.264 150.264 220.872 151.835 220.872 154.222C220.872 156.588 222.264 158.159 224.332 158.159ZM224.332 157.105C222.761 157.105 222.045 155.753 222.045 154.222C222.045 152.69 222.761 151.318 224.332 151.318C225.903 151.318 226.619 152.69 226.619 154.222C226.619 155.753 225.903 157.105 224.332 157.105ZM234.694 147.818H233.521V158H234.694V147.818ZM239.091 158.179C240.423 158.179 241.119 157.463 241.358 156.966H241.417V158H242.591V152.969C242.591 150.543 240.741 150.264 239.767 150.264C238.613 150.264 237.301 150.662 236.704 152.054L237.818 152.452C238.076 151.895 238.688 151.298 239.806 151.298C240.885 151.298 241.417 151.87 241.417 152.849V152.889C241.417 153.456 240.841 153.406 239.449 153.585C238.032 153.769 236.485 154.082 236.485 155.832C236.485 157.324 237.639 158.179 239.091 158.179ZM239.27 157.125C238.335 157.125 237.659 156.707 237.659 155.892C237.659 154.997 238.474 154.719 239.389 154.599C239.886 154.54 241.218 154.401 241.417 154.162V155.236C241.417 156.19 240.662 157.125 239.27 157.125ZM247.834 158.159C249.525 158.159 250.638 157.125 250.837 155.773H249.664C249.445 156.608 248.749 157.105 247.834 157.105C246.442 157.105 245.547 155.952 245.547 154.182C245.547 152.452 246.462 151.318 247.834 151.318C248.868 151.318 249.485 151.955 249.664 152.651H250.837C250.638 151.219 249.425 150.264 247.814 150.264C245.746 150.264 244.374 151.895 244.374 154.222C244.374 156.509 245.687 158.159 247.834 158.159ZM252.552 158H253.726V150.364H252.552V158ZM253.149 149.091C253.606 149.091 253.984 148.733 253.984 148.295C253.984 147.858 253.606 147.5 253.149 147.5C252.692 147.5 252.314 147.858 252.314 148.295C252.314 148.733 252.692 149.091 253.149 149.091ZM257.048 153.406C257.048 152.074 257.873 151.318 258.997 151.318C260.086 151.318 260.747 152.029 260.747 153.227V158H261.92V153.148C261.92 151.199 260.881 150.264 259.335 150.264C258.181 150.264 257.466 150.781 257.108 151.557H257.008V150.364H255.875V158H257.048V153.406ZM264.064 158H265.237V150.364H264.064V158ZM264.661 149.091C265.118 149.091 265.496 148.733 265.496 148.295C265.496 147.858 265.118 147.5 264.661 147.5C264.203 147.5 263.825 147.858 263.825 148.295C263.825 148.733 264.203 149.091 264.661 149.091ZM269.634 158.179C270.966 158.179 271.662 157.463 271.901 156.966H271.96V158H273.134V152.969C273.134 150.543 271.284 150.264 270.31 150.264C269.156 150.264 267.844 150.662 267.247 152.054L268.361 152.452C268.619 151.895 269.231 151.298 270.349 151.298C271.428 151.298 271.96 151.87 271.96 152.849V152.889C271.96 153.456 271.384 153.406 269.991 153.585C268.575 153.769 267.028 154.082 267.028 155.832C267.028 157.324 268.182 158.179 269.634 158.179ZM269.812 157.125C268.878 157.125 268.202 156.707 268.202 155.892C268.202 154.997 269.017 154.719 269.932 154.599C270.429 154.54 271.761 154.401 271.96 154.162V155.236C271.96 156.19 271.205 157.125 269.812 157.125ZM277.025 156.608H275.752L275.693 157.165C275.548 158.512 275.265 159.854 275.136 160.486H276.031C276.269 159.81 276.776 158.278 276.945 157.145L277.025 156.608ZM24.3949 174.364H22.7642V172.534H21.5909V174.364H20.4375V175.358H21.5909V180.131C21.5909 181.463 22.6648 182.099 23.6591 182.099C24.0966 182.099 24.375 182.02 24.5341 181.96L24.2955 180.906C24.196 180.926 24.0369 180.966 23.7784 180.966C23.2614 180.966 22.7642 180.807 22.7642 179.812V175.358H24.3949V174.364ZM29.2795 182.159C30.8306 182.159 31.9641 181.384 32.3221 180.23L31.1886 179.912C30.8903 180.707 30.1992 181.105 29.2795 181.105C27.9023 181.105 26.9528 180.215 26.8981 178.58H32.4414V178.082C32.4414 175.239 30.7511 174.264 29.1602 174.264C27.092 174.264 25.7198 175.895 25.7198 178.241C25.7198 180.588 27.0721 182.159 29.2795 182.159ZM26.8981 177.565C26.9776 176.377 27.8178 175.318 29.1602 175.318C30.4329 175.318 31.2482 176.273 31.2482 177.565H26.8981ZM34.2262 182H35.3995V177.227C35.3995 176.109 36.2148 175.318 37.1296 175.318C38.0195 175.318 38.641 175.9 38.641 176.77V182H39.8342V177.028C39.8342 176.044 40.4506 175.318 41.5245 175.318C42.3597 175.318 43.0756 175.761 43.0756 176.889V182H44.2489V176.889C44.2489 175.094 43.2844 174.264 41.9222 174.264C40.8285 174.264 40.0281 174.766 39.6353 175.557H39.5558C39.1779 174.741 38.5117 174.264 37.5075 174.264C36.5131 174.264 35.7773 174.741 35.4592 175.557H35.3597V174.364H34.2262V182ZM46.3942 184.864H47.5675V180.827H47.6669C47.9254 181.244 48.4226 182.159 49.8942 182.159C51.8033 182.159 53.1357 180.628 53.1357 178.202C53.1357 175.795 51.8033 174.264 49.8743 174.264C48.3828 174.264 47.9254 175.179 47.6669 175.577H47.5277V174.364H46.3942V184.864ZM47.5476 178.182C47.5476 176.472 48.3033 175.318 49.7351 175.318C51.2266 175.318 51.9624 176.571 51.9624 178.182C51.9624 179.812 51.2067 181.105 49.7351 181.105C48.3232 181.105 47.5476 179.912 47.5476 178.182ZM59.7379 178.878C59.7379 180.31 58.6442 180.966 57.7692 180.966C56.7947 180.966 56.0987 180.25 56.0987 179.136V174.364H54.9254V179.216C54.9254 181.165 55.9595 182.099 57.3913 182.099C58.5447 182.099 59.3004 181.483 59.6584 180.707H59.7379V182H60.9112V174.364H59.7379V178.878ZM68.4693 176.074C68.1014 174.99 67.2761 174.264 65.7647 174.264C64.1539 174.264 62.9608 175.179 62.9608 176.472C62.9608 177.526 63.5872 178.232 64.9892 178.56L66.2619 178.858C67.0325 179.037 67.3954 179.405 67.3954 179.932C67.3954 180.588 66.6994 181.125 65.6056 181.125C64.6461 181.125 64.0446 180.712 63.8358 179.892L62.7221 180.17C62.9956 181.468 64.0645 182.159 65.6255 182.159C67.4004 182.159 68.6085 181.19 68.6085 179.872C68.6085 178.808 67.9423 178.137 66.5801 177.804L65.4466 177.526C64.5417 177.302 64.1341 176.999 64.1341 176.412C64.1341 175.756 64.8301 175.278 65.7647 175.278C66.7889 175.278 67.2115 175.845 67.4153 176.372L68.4693 176.074ZM77.4144 182.159C79.4826 182.159 80.8746 180.588 80.8746 178.222C80.8746 175.835 79.4826 174.264 77.4144 174.264C75.3462 174.264 73.9542 175.835 73.9542 178.222C73.9542 180.588 75.3462 182.159 77.4144 182.159ZM77.4144 181.105C75.8434 181.105 75.1275 179.753 75.1275 178.222C75.1275 176.69 75.8434 175.318 77.4144 175.318C78.9854 175.318 79.7013 176.69 79.7013 178.222C79.7013 179.753 78.9854 181.105 77.4144 181.105ZM85.5492 182.159C87.0208 182.159 87.5179 181.244 87.7765 180.827H87.9157V182H89.0492V171.818H87.8759V175.577H87.7765C87.5179 175.179 87.0605 174.264 85.5691 174.264C83.6401 174.264 82.3077 175.795 82.3077 178.202C82.3077 180.628 83.6401 182.159 85.5492 182.159ZM85.7083 181.105C84.2367 181.105 83.481 179.812 83.481 178.182C83.481 176.571 84.2168 175.318 85.7083 175.318C87.1401 175.318 87.8958 176.472 87.8958 178.182C87.8958 179.912 87.1202 181.105 85.7083 181.105ZM91.361 182H92.5343V174.364H91.361V182ZM91.9576 173.091C92.415 173.091 92.7928 172.733 92.7928 172.295C92.7928 171.858 92.415 171.5 91.9576 171.5C91.5002 171.5 91.1223 171.858 91.1223 172.295C91.1223 172.733 91.5002 173.091 91.9576 173.091ZM97.7855 182.159C99.8537 182.159 101.246 180.588 101.246 178.222C101.246 175.835 99.8537 174.264 97.7855 174.264C95.7173 174.264 94.3253 175.835 94.3253 178.222C94.3253 180.588 95.7173 182.159 97.7855 182.159ZM97.7855 181.105C96.2145 181.105 95.4986 179.753 95.4986 178.222C95.4986 176.69 96.2145 175.318 97.7855 175.318C99.3565 175.318 100.072 176.69 100.072 178.222C100.072 179.753 99.3565 181.105 97.7855 181.105ZM108.148 177.406C108.148 176.074 108.998 175.318 110.156 175.318C111.26 175.318 111.926 176.014 111.926 177.227V182H113.099V177.148C113.099 175.184 112.055 174.264 110.494 174.264C109.291 174.264 108.605 174.766 108.247 175.557H108.148V171.818H106.974V182H108.148V177.406ZM118.447 182.159C119.999 182.159 121.132 181.384 121.49 180.23L120.357 179.912C120.058 180.707 119.367 181.105 118.447 181.105C117.07 181.105 116.121 180.215 116.066 178.58H121.609V178.082C121.609 175.239 119.919 174.264 118.328 174.264C116.26 174.264 114.888 175.895 114.888 178.241C114.888 180.588 116.24 182.159 118.447 182.159ZM116.066 177.565C116.146 176.377 116.986 175.318 118.328 175.318C119.601 175.318 120.416 176.273 120.416 177.565H116.066ZM124.567 177.406C124.567 176.074 125.393 175.318 126.516 175.318C127.605 175.318 128.266 176.029 128.266 177.227V182H129.44V177.148C129.44 175.199 128.401 174.264 126.854 174.264C125.701 174.264 124.985 174.781 124.627 175.557H124.528V174.364H123.394V182H124.567V177.406ZM134.467 182.159C135.939 182.159 136.436 181.244 136.694 180.827H136.834V182H137.967V171.818H136.794V175.577H136.694C136.436 175.179 135.979 174.264 134.487 174.264C132.558 174.264 131.226 175.795 131.226 178.202C131.226 180.628 132.558 182.159 134.467 182.159ZM134.626 181.105C133.155 181.105 132.399 179.812 132.399 178.182C132.399 176.571 133.135 175.318 134.626 175.318C136.058 175.318 136.814 176.472 136.814 178.182C136.814 179.912 136.038 181.105 134.626 181.105ZM140.279 182H141.452V177.168C141.452 176.134 142.268 175.378 143.381 175.378C143.694 175.378 144.018 175.438 144.097 175.457V174.264C143.963 174.254 143.655 174.244 143.481 174.244C142.566 174.244 141.77 174.761 141.492 175.517H141.412V174.364H140.279V182ZM148.457 182.159C150.008 182.159 151.142 181.384 151.5 180.23L150.366 179.912C150.068 180.707 149.377 181.105 148.457 181.105C147.08 181.105 146.131 180.215 146.076 178.58H151.619V178.082C151.619 175.239 149.929 174.264 148.338 174.264C146.27 174.264 144.898 175.895 144.898 178.241C144.898 180.588 146.25 182.159 148.457 182.159ZM146.076 177.565C146.155 176.377 146.996 175.318 148.338 175.318C149.611 175.318 150.426 176.273 150.426 177.565H146.076ZM153.404 182H154.577V177.168C154.577 176.134 155.393 175.378 156.506 175.378C156.819 175.378 157.143 175.438 157.222 175.457V174.264C157.088 174.254 156.78 174.244 156.606 174.244C155.691 174.244 154.895 174.761 154.617 175.517H154.537V174.364H153.404V182ZM158.613 182H159.786V174.364H158.613V182ZM159.21 173.091C159.667 173.091 160.045 172.733 160.045 172.295C160.045 171.858 159.667 171.5 159.21 171.5C158.752 171.5 158.374 171.858 158.374 172.295C158.374 172.733 158.752 173.091 159.21 173.091ZM165.256 174.364H163.626V172.534H162.452V174.364H161.299V175.358H162.452V180.131C162.452 181.463 163.526 182.099 164.52 182.099C164.958 182.099 165.236 182.02 165.395 181.96L165.157 180.906C165.057 180.926 164.898 180.966 164.64 180.966C164.123 180.966 163.626 180.807 163.626 179.812V175.358H165.256V174.364ZM168.771 180.608H167.498L167.439 181.165C167.295 182.512 167.011 183.854 166.882 184.486H167.777C168.015 183.81 168.523 182.278 168.692 181.145L168.771 180.608ZM179.695 178.878C179.695 180.31 178.601 180.966 177.726 180.966C176.752 180.966 176.056 180.25 176.056 179.136V174.364H174.882V179.216C174.882 181.165 175.917 182.099 177.348 182.099C178.502 182.099 179.257 181.483 179.615 180.707H179.695V182H180.868V174.364H179.695V178.878ZM184.191 171.818H183.017V182H184.191V171.818ZM189.661 174.364H188.03V172.534H186.857V174.364H185.703V175.358H186.857V180.131C186.857 181.463 187.93 182.099 188.925 182.099C189.362 182.099 189.641 182.02 189.8 181.96L189.561 180.906C189.462 180.926 189.303 180.966 189.044 180.966C188.527 180.966 188.03 180.807 188.03 179.812V175.358H189.661V174.364ZM191.425 182H192.599V177.168C192.599 176.134 193.414 175.378 194.528 175.378C194.841 175.378 195.164 175.438 195.244 175.457V174.264C195.109 174.254 194.801 174.244 194.627 174.244C193.712 174.244 192.917 174.761 192.638 175.517H192.559V174.364H191.425V182ZM196.634 182H197.808V174.364H196.634V182ZM197.231 173.091C197.688 173.091 198.066 172.733 198.066 172.295C198.066 171.858 197.688 171.5 197.231 171.5C196.774 171.5 196.396 171.858 196.396 172.295C196.396 172.733 196.774 173.091 197.231 173.091ZM203.059 182.159C204.749 182.159 205.863 181.125 206.062 179.773H204.888C204.67 180.608 203.974 181.105 203.059 181.105C201.667 181.105 200.772 179.952 200.772 178.182C200.772 176.452 201.687 175.318 203.059 175.318C204.093 175.318 204.71 175.955 204.888 176.651H206.062C205.863 175.219 204.65 174.264 203.039 174.264C200.971 174.264 199.599 175.895 199.599 178.222C199.599 180.509 200.911 182.159 203.059 182.159ZM207.777 182H208.95V174.364H207.777V182ZM208.374 173.091C208.831 173.091 209.209 172.733 209.209 172.295C209.209 171.858 208.831 171.5 208.374 171.5C207.916 171.5 207.538 171.858 207.538 172.295C207.538 172.733 207.916 173.091 208.374 173.091ZM214.301 182.159C215.852 182.159 216.986 181.384 217.344 180.23L216.21 179.912C215.912 180.707 215.221 181.105 214.301 181.105C212.924 181.105 211.974 180.215 211.92 178.58H217.463V178.082C217.463 175.239 215.773 174.264 214.182 174.264C212.113 174.264 210.741 175.895 210.741 178.241C210.741 180.588 212.094 182.159 214.301 182.159ZM211.92 177.565C211.999 176.377 212.839 175.318 214.182 175.318C215.454 175.318 216.27 176.273 216.27 177.565H211.92ZM224.657 176.074C224.289 174.99 223.464 174.264 221.952 174.264C220.341 174.264 219.148 175.179 219.148 176.472C219.148 177.526 219.775 178.232 221.177 178.56L222.449 178.858C223.22 179.037 223.583 179.405 223.583 179.932C223.583 180.588 222.887 181.125 221.793 181.125C220.834 181.125 220.232 180.712 220.023 179.892L218.91 180.17C219.183 181.468 220.252 182.159 221.813 182.159C223.588 182.159 224.796 181.19 224.796 179.872C224.796 178.808 224.13 178.137 222.768 177.804L221.634 177.526C220.729 177.302 220.322 176.999 220.322 176.412C220.322 175.756 221.018 175.278 221.952 175.278C222.976 175.278 223.399 175.845 223.603 176.372L224.657 176.074ZM233.383 182.159C234.855 182.159 235.352 181.244 235.61 180.827H235.75V182H236.883V171.818H235.71V175.577H235.61C235.352 175.179 234.895 174.264 233.403 174.264C231.474 174.264 230.142 175.795 230.142 178.202C230.142 180.628 231.474 182.159 233.383 182.159ZM233.542 181.105C232.071 181.105 231.315 179.812 231.315 178.182C231.315 176.571 232.051 175.318 233.542 175.318C234.974 175.318 235.73 176.472 235.73 178.182C235.73 179.912 234.954 181.105 233.542 181.105ZM239.195 182H240.368V174.364H239.195V182ZM239.792 173.091C240.249 173.091 240.627 172.733 240.627 172.295C240.627 171.858 240.249 171.5 239.792 171.5C239.334 171.5 238.956 171.858 238.956 172.295C238.956 172.733 239.334 173.091 239.792 173.091ZM244.764 182.179C246.097 182.179 246.793 181.463 247.031 180.966H247.091V182H248.264V176.969C248.264 174.543 246.415 174.264 245.441 174.264C244.287 174.264 242.975 174.662 242.378 176.054L243.492 176.452C243.75 175.895 244.362 175.298 245.48 175.298C246.559 175.298 247.091 175.87 247.091 176.849V176.889C247.091 177.456 246.514 177.406 245.122 177.585C243.705 177.769 242.159 178.082 242.159 179.832C242.159 181.324 243.313 182.179 244.764 182.179ZM244.943 181.125C244.009 181.125 243.333 180.707 243.333 179.892C243.333 178.997 244.148 178.719 245.063 178.599C245.56 178.54 246.892 178.401 247.091 178.162V179.236C247.091 180.19 246.335 181.125 244.943 181.125ZM250.406 182H251.579V177.227C251.579 176.109 252.395 175.318 253.309 175.318C254.199 175.318 254.821 175.9 254.821 176.77V182H256.014V177.028C256.014 176.044 256.63 175.318 257.704 175.318C258.539 175.318 259.255 175.761 259.255 176.889V182H260.429V176.889C260.429 175.094 259.464 174.264 258.102 174.264C257.008 174.264 256.208 174.766 255.815 175.557H255.735C255.358 174.741 254.691 174.264 253.687 174.264C252.693 174.264 251.957 174.741 251.639 175.557H251.539V174.364H250.406V182ZM263.429 182.08C263.921 182.08 264.324 181.677 264.324 181.185C264.324 180.692 263.921 180.29 263.429 180.29C262.937 180.29 262.534 180.692 262.534 181.185C262.534 181.677 262.937 182.08 263.429 182.08Z" fill="#333333"/>
<path d="M22.3665 212.818H20.343L23.9276 223H26.2045L29.794 212.818H27.7656L25.1207 220.832H25.0163L22.3665 212.818ZM31.1351 223H37.7971V221.454H32.9796V218.675H37.4142V217.129H32.9796V214.364H37.7573V212.818H31.1351V223ZM43.6561 212.818V219.977C43.6511 221.051 43.1539 221.623 42.269 221.623C41.4437 221.623 40.8919 221.121 40.877 220.295H39.0424C39.0424 222.175 40.4146 223.139 42.1994 223.139C44.1632 223.139 45.4806 221.946 45.4856 219.977V212.818H43.6561ZM48.7942 223L49.6344 220.489H53.4625L54.3077 223H56.2765L52.687 212.818H50.41L46.8255 223H48.7942ZM50.1316 219.008L51.5087 214.906H51.5882L52.9654 219.008H50.1316ZM62.3977 223L63.2379 220.489H67.0661L67.9112 223H69.88L66.2905 212.818H64.0135L60.429 223H62.3977ZM63.7351 219.008L65.1122 214.906H65.1918L66.5689 219.008H63.7351ZM76.5904 215.617H78.3652C78.3304 213.897 76.8638 212.679 74.6962 212.679C72.5584 212.679 70.9526 213.882 70.9576 215.682C70.9576 217.143 71.9966 217.984 73.6721 218.416L74.8304 218.714C75.9292 218.993 76.655 219.336 76.66 220.126C76.655 220.996 75.8297 221.578 74.6266 221.578C73.4732 221.578 72.5783 221.061 72.5037 219.992H70.6891C70.7637 222.016 72.2701 223.154 74.6415 223.154C77.0826 223.154 78.4995 221.936 78.5044 220.141C78.4995 218.376 77.0428 217.571 75.5115 217.208L74.557 216.969C73.7218 216.771 72.8169 216.418 72.8269 215.567C72.8319 214.802 73.5179 214.24 74.6713 214.24C75.7701 214.24 76.4959 214.752 76.5904 215.617ZM92.7195 217.909C92.7195 214.618 90.7109 212.679 88.0412 212.679C85.3665 212.679 83.3629 214.618 83.3629 217.909C83.3629 221.195 85.3665 223.139 88.0412 223.139C90.7109 223.139 92.7195 221.2 92.7195 217.909ZM90.8651 217.909C90.8651 220.226 89.7017 221.484 88.0412 221.484C86.3857 221.484 85.2173 220.226 85.2173 217.909C85.2173 215.592 86.3857 214.335 88.0412 214.335C89.7017 214.335 90.8651 215.592 90.8651 217.909ZM94.4632 223H96.3077V219.56H98.2566C100.608 219.56 101.871 218.148 101.871 216.189C101.871 214.245 100.623 212.818 98.2814 212.818H94.4632V223ZM96.3077 218.043V214.359H97.998C99.3801 214.359 99.9917 215.105 99.9917 216.189C99.9917 217.273 99.3801 218.043 98.008 218.043H96.3077ZM112.188 216.254C111.875 213.991 110.135 212.679 107.878 212.679C105.218 212.679 103.214 214.618 103.214 217.909C103.214 220.967 104.93 222.861 107.331 223.109L107.142 223.989C107.848 224.064 108.166 224.233 108.156 224.656C108.146 225.093 107.664 225.287 106.903 225.287L106.923 226.172C108.494 226.172 109.374 225.55 109.369 224.611C109.369 223.885 108.872 223.507 108.251 223.413L108.305 223.124C110.488 222.95 111.92 221.459 112.188 219.629L110.329 219.619C110.095 220.812 109.121 221.484 107.903 221.484C106.252 221.484 105.069 220.246 105.069 217.909C105.069 215.612 106.242 214.335 107.908 214.335C109.146 214.335 110.115 215.036 110.329 216.254H112.188ZM122.975 217.909C122.975 214.618 120.967 212.679 118.297 212.679C115.622 212.679 113.619 214.618 113.619 217.909C113.619 221.195 115.622 223.139 118.297 223.139C120.967 223.139 122.975 221.2 122.975 217.909ZM121.121 217.909C121.121 220.226 119.958 221.484 118.297 221.484C116.642 221.484 115.473 220.226 115.473 217.909C115.473 215.592 116.642 214.335 118.297 214.335C119.958 214.335 121.121 215.592 121.121 217.909ZM116.835 211.814C116.835 211.362 117.084 211.058 117.437 211.058C117.735 211.058 117.939 211.202 118.158 211.362C118.431 211.555 118.735 211.769 119.262 211.764C120.146 211.759 120.838 211.073 120.847 209.89L119.779 209.845C119.774 210.288 119.535 210.606 119.157 210.606C118.869 210.606 118.645 210.457 118.401 210.298C118.113 210.109 117.8 209.9 117.333 209.9C116.443 209.9 115.747 210.606 115.747 211.789L116.835 211.814ZM124.719 223H131.381V221.454H126.564V218.675H130.998V217.129H126.564V214.364H131.341V212.818H124.719V223ZM138.756 215.617H140.531C140.496 213.897 139.03 212.679 136.862 212.679C134.724 212.679 133.119 213.882 133.124 215.682C133.124 217.143 134.163 217.984 135.838 218.416L136.996 218.714C138.095 218.993 138.821 219.336 138.826 220.126C138.821 220.996 137.996 221.578 136.793 221.578C135.639 221.578 134.744 221.061 134.67 219.992H132.855C132.93 222.016 134.436 223.154 136.808 223.154C139.249 223.154 140.665 221.936 140.67 220.141C140.665 218.376 139.209 217.571 137.678 217.208L136.723 216.969C135.888 216.771 134.983 216.418 134.993 215.567C134.998 214.802 135.684 214.24 136.837 214.24C137.936 214.24 138.662 214.752 138.756 215.617Z" fill="#E51D37"/>
<path d="M20 225.814H141.307V227.022H20V225.814Z" fill="#E51D37"/>
<defs>
<linearGradient id="paint0_linear_2_221" x1="47.5626" y1="26.8542" x2="28.4584" y2="48.875" gradientUnits="userSpaceOnUse">
<stop stop-color="#EB3850"/>
<stop offset="1" stop-color="#CB162E"/>
</linearGradient>
<linearGradient id="paint1_linear_2_221" x1="42.4292" y1="30.325" x2="35.7503" y2="34.1743" gradientUnits="userSpaceOnUse">
<stop stop-color="#EB3850"/>
<stop offset="1" stop-color="#CB162E"/>
</linearGradient>
</defs>
</svg>
