<svg width="153" height="183" viewBox="0 0 153 183" fill="none" xmlns="http://www.w3.org/2000/svg">
<g filter="url(#filter0_dd_2_379)">
<path fill-rule="evenodd" clip-rule="evenodd" d="M138.682 16.3203C138.682 15.994 138.458 14.9776 137.629 13.538C136.838 12.1658 135.59 10.577 133.8 9.10455C130.254 6.18907 124.493 3.65887 115.729 4.30395C100.518 5.42347 88.2022 10.711 79.2047 17.8381C87.8795 25.7483 93.1919 35.3894 94.5133 44.605C95.5768 42.9233 96.8275 41.3441 98.2201 39.9152C102.731 35.2866 108.942 32.018 115.582 32.018H138.682V16.3203ZM60.933 161.14C62.3705 162.159 64.2062 162.578 66.2616 162.578H86.5636C89.0843 162.578 91.2747 161.948 92.8053 160.353C94.3207 158.773 94.8387 156.61 94.8387 154.322V54.8014C95.4125 50.5459 97.6918 46.1884 101.085 42.7069C105.025 38.6635 110.257 36.018 115.582 36.018H140.682H142.682V34.018V16.3203C142.682 14.9874 142.081 13.2527 141.095 11.5413C140.07 9.76257 138.512 7.80069 136.34 6.01498C131.961 2.41413 125.173 -0.401964 115.435 0.314738C99.1974 1.50985 85.8492 7.2946 76.1065 15.2025C66.4056 7.50298 53.2246 1.89391 37.2471 0.720287C27.5105 0.00508019 20.7222 2.8152 16.3431 6.40901C14.1713 8.19128 12.613 10.1496 11.5879 11.9253C10.6018 13.6335 10 15.3661 10 16.6984V34.3613V36.3613H12H37.1006C42.427 36.3613 47.6592 39.0024 51.5995 43.0374C54.9941 46.5137 57.2732 50.8645 57.8453 55.1118V154.215C57.8453 156.506 58.3628 158.671 59.8773 160.253C60.2007 160.59 60.5537 160.885 60.933 161.14ZM58.0989 44.8145C57.0504 43.1767 55.8237 41.638 54.4613 40.2428C49.95 35.6229 43.7392 32.3613 37.1006 32.3613H14V16.6984C14 16.3747 14.2229 15.3615 15.0522 13.925C15.8425 12.556 17.09 10.9706 18.8806 9.50107C22.4262 6.59133 28.1882 4.06564 36.9541 4.70954C51.9191 5.80879 64.0813 10.9338 73.0385 17.8717C64.4596 25.8732 59.2691 35.5795 58.0989 44.8145ZM63.201 157.842C63.0882 157.758 62.9907 157.671 62.9061 157.583C62.3913 157.047 61.9865 156.082 61.9865 154.322V57.176C61.9865 56.4015 61.9384 55.6264 61.8453 54.8539V48.766C61.8453 39.5887 66.8161 29.013 76.1362 20.4548C85.722 29.0605 90.8387 39.7899 90.8387 49.0805V54.5432C90.745 55.3198 90.6966 56.099 90.6966 56.8774V154.215C90.6966 155.979 90.2913 156.948 89.7757 157.486C89.2759 158.008 88.3294 158.482 86.4216 158.482H66.1203C64.6624 158.482 63.7658 158.205 63.201 157.842Z" fill="white"/>
</g>
<defs>
<filter id="filter0_dd_2_379" x="0" y="0.202637" width="152.682" height="182.375" filterUnits="userSpaceOnUse" color-interpolation-filters="sRGB">
<feFlood flood-opacity="0" result="BackgroundImageFix"/>
<feColorMatrix in="SourceAlpha" type="matrix" values="0 0 0 0 0 0 0 0 0 0 0 0 0 0 0 0 0 0 127 0" result="hardAlpha"/>
<feOffset dy="10"/>
<feGaussianBlur stdDeviation="5"/>
<feComposite in2="hardAlpha" operator="out"/>
<feColorMatrix type="matrix" values="0 0 0 0 0.65098 0 0 0 0 0.65098 0 0 0 0 0.654902 0 0 0 0.3 0"/>
<feBlend mode="normal" in2="BackgroundImageFix" result="effect1_dropShadow_2_379"/>
<feColorMatrix in="SourceAlpha" type="matrix" values="0 0 0 0 0 0 0 0 0 0 0 0 0 0 0 0 0 0 127 0" result="hardAlpha"/>
<feOffset dy="4"/>
<feGaussianBlur stdDeviation="2"/>
<feComposite in2="hardAlpha" operator="out"/>
<feColorMatrix type="matrix" values="0 0 0 0 0 0 0 0 0 0 0 0 0 0 0 0 0 0 0.25 0"/>
<feBlend mode="normal" in2="effect1_dropShadow_2_379" result="effect2_dropShadow_2_379"/>
<feBlend mode="normal" in="SourceGraphic" in2="effect2_dropShadow_2_379" result="shape"/>
</filter>
</defs>
</svg>
