<svg width="300" height="624" viewBox="0 0 300 624" fill="none" xmlns="http://www.w3.org/2000/svg">
<path d="M0 80.622C0 79.0803 1.24983 77.8304 2.79156 77.8304C3.30548 77.8304 3.72208 78.2471 3.72208 78.761V99.9918C3.72208 100.506 3.30548 100.922 2.79156 100.922C1.24983 100.922 0 99.6725 0 98.1308V80.622Z" fill="#E51D37"/>
<path d="M0 121.035C0 119.8 0.99986 118.8 2.23325 118.8H2.97767C3.3888 118.8 3.72208 119.133 3.72208 119.545V158.279C3.72208 158.691 3.3888 159.024 2.97767 159.024H2.23325C0.99986 159.024 0 158.024 0 156.79V121.035Z" fill="#E51D37"/>
<path d="M0 174.667C0 173.433 0.99986 172.433 2.23325 172.433H2.97767C3.3888 172.433 3.72208 172.766 3.72208 173.178V211.912C3.72208 212.324 3.3888 212.657 2.97767 212.657H2.23325C0.99986 212.657 0 211.657 0 210.423V174.667Z" fill="#E51D37"/>
<path d="M297.022 137.422C297.022 137.011 297.356 136.677 297.767 136.677C299 136.677 300 137.678 300 138.912V200.739C300 201.973 299 202.973 297.767 202.973C297.356 202.973 297.022 202.64 297.022 202.229V137.422Z" fill="#E51D37"/>
<path fill-rule="evenodd" clip-rule="evenodd" d="M255.335 0.36084H44.6649C20.8194 0.36084 1.48877 19.704 1.48877 43.565V579.893C1.48877 603.754 20.8194 623.097 44.6649 623.097H255.335C279.18 623.097 298.511 603.754 298.511 579.893V43.565C298.511 19.704 279.18 0.36084 255.335 0.36084ZM10.4218 43.565C10.4218 24.6408 25.7529 9.29964 44.6649 9.29964H66.3155C68.8808 10.2029 70.7195 12.6491 70.7195 15.5249C70.7195 24.6345 78.0995 32.0191 87.203 32.0191H212.052C221.156 32.0191 228.536 24.6345 228.536 15.5249C228.536 12.6491 230.375 10.2029 232.94 9.29964H255.335C274.247 9.29964 289.578 24.6408 289.578 43.565V579.893C289.578 598.817 274.247 614.158 255.335 614.158H44.6649C25.7529 614.158 10.4218 598.817 10.4218 579.893V43.565Z" fill="#E51D37" fill-opacity="0.15"/>
<rect x="133.25" y="16.7485" width="32.7543" height="2.9796" rx="1.4898" fill="#E51D37"/>
<ellipse cx="181.638" cy="18.2384" rx="3.72208" ry="3.7245" fill="#E51D37"/>
</svg>
