<svg width="110" height="111" viewBox="0 0 110 111" fill="none" xmlns="http://www.w3.org/2000/svg">
<g filter="url(#filter0_d_2_186)">
<rect x="25" y="16.6877" width="60" height="60.0389" rx="8" fill="white"/>
</g>
<path d="M54.5001 60.7997C62.5542 60.7997 69.0834 54.2663 69.0834 46.2069C69.0834 38.1476 62.5542 31.6141 54.5001 31.6141C46.4459 31.6141 39.9167 38.1476 39.9167 46.2069C39.9167 54.2663 46.4459 60.7997 54.5001 60.7997Z" stroke="url(#paint0_linear_2_186)" stroke-width="2" stroke-linecap="round" stroke-linejoin="round"/>
<path d="M48.6667 49.1255C48.6667 49.1255 50.8542 52.044 54.5001 52.044C58.1459 52.044 60.3334 49.1255 60.3334 49.1255" stroke="url(#paint1_linear_2_186)" stroke-width="2" stroke-linecap="round" stroke-linejoin="round"/>
<path d="M50.125 41.8291H50.1396" stroke="url(#paint2_linear_2_186)" stroke-width="2" stroke-linecap="round" stroke-linejoin="round"/>
<path d="M58.875 41.8291H58.8896" stroke="url(#paint3_linear_2_186)" stroke-width="2" stroke-linecap="round" stroke-linejoin="round"/>
<defs>
<filter id="filter0_d_2_186" x="0" y="0.687744" width="110" height="110.039" filterUnits="userSpaceOnUse" color-interpolation-filters="sRGB">
<feFlood flood-opacity="0" result="BackgroundImageFix"/>
<feColorMatrix in="SourceAlpha" type="matrix" values="0 0 0 0 0 0 0 0 0 0 0 0 0 0 0 0 0 0 127 0" result="hardAlpha"/>
<feOffset dy="9"/>
<feGaussianBlur stdDeviation="12.5"/>
<feComposite in2="hardAlpha" operator="out"/>
<feColorMatrix type="matrix" values="0 0 0 0 0.898039 0 0 0 0 0.113725 0 0 0 0 0.215686 0 0 0 0.1 0"/>
<feBlend mode="normal" in2="BackgroundImageFix" result="effect1_dropShadow_2_186"/>
<feBlend mode="normal" in="SourceGraphic" in2="effect1_dropShadow_2_186" result="shape"/>
</filter>
<linearGradient id="paint0_linear_2_186" x1="64.5626" y1="35.5542" x2="45.4443" y2="57.577" gradientUnits="userSpaceOnUse">
<stop stop-color="#EB3850"/>
<stop offset="1" stop-color="#CB162E"/>
</linearGradient>
<linearGradient id="paint1_linear_2_186" x1="58.5251" y1="49.5195" x2="57.7246" y2="53.2077" gradientUnits="userSpaceOnUse">
<stop stop-color="#EB3850"/>
<stop offset="1" stop-color="#CB162E"/>
</linearGradient>
<linearGradient id="paint2_linear_2_186" x1="50.1373" y1="41.9641" x2="50.1151" y2="41.9645" gradientUnits="userSpaceOnUse">
<stop stop-color="#EB3850"/>
<stop offset="1" stop-color="#CB162E"/>
</linearGradient>
<linearGradient id="paint3_linear_2_186" x1="58.8873" y1="41.9641" x2="58.8651" y2="41.9645" gradientUnits="userSpaceOnUse">
<stop stop-color="#EB3850"/>
<stop offset="1" stop-color="#CB162E"/>
</linearGradient>
</defs>
</svg>
